<?xml version="1.0" encoding="utf-8"?>
<!-- Generator: Adobe Illustrator 22.0.0, SVG Export Plug-In . SVG Version: 6.00 Build 0)  -->
<svg version="1.1" id="Layer_1" xmlns="http://www.w3.org/2000/svg" xmlns:xlink="http://www.w3.org/1999/xlink" x="0px" y="0px"
	 viewBox="0 0 216 216" style="enable-background:new 0 0 216 216;" xml:space="preserve">
<style type="text/css">
	.st0{fill:#FFFFFF;}
	.st1{fill:#1F9FFF;}
</style>
<circle class="st0" cx="107.3" cy="107.3" r="105.3"/>
<polygon class="st1" points="57.7,66 61.3,68 72,68.5 80.2,65.8 82.6,62 82.5,60 94.8,57.3 138.2,48.7 153.8,45.2 173.2,49.7 
	181.3,59.3 187,70.8 178.3,71.7 36.7,71.3 50.7,66.5 "/>
<polygon class="st1" points="20.2,127.2 20.5,76.7 187.7,76.8 188.3,112.7 182.3,114.8 174.8,120.5 170.7,129.2 171,136.7 
	173.8,143 179.2,148.5 185.5,151 187.8,152.2 187.8,160 56.7,160.5 50.7,141.8 47.2,134.8 43.2,130.2 36.8,127.3 28.3,126.2 "/>
<polygon class="st0" points="69.7,153.8 76,156.7 82.5,154.5 85.5,149.8 85.8,144.7 83.2,139.5 76.7,135.7 63,145.8 "/>
<polygon class="st0" points="77.8,112 81,108.2 81,101.2 76.5,95 69.5,94.5 63.8,98.2 62,103.8 63.7,109 67,112.7 71.5,114.3 "/>
<polygon class="st0" points="163,108.2 157.3,105 158.3,98.5 164.5,97.3 167.7,100 168,106 "/>
<polygon class="st0" points="105.8,66.7 100.8,65.2 101.2,61.3 105,59.5 114.2,60.5 116.8,63.2 113.8,65.8 "/>
<path class="st0" d="M134.7,65.7c-0.2-0.4-6-5.7-6-5.7l1.8-5.7l5.8-2.8l8.8-1.2l10.5,1.3l8.7,4.8l0.5,2.7l-2,3.5l-6,3.3l-14.5,0.7
	L134.7,65.7z"/>
<polygon class="st0" points="141.5,102.8 137.5,103.5 136.2,100.3 138.5,97.3 141,98.8 "/>
<polygon class="st0" points="110,108.7 120.3,107.8 127.5,109.2 133.3,113.2 137.7,119 140.2,125.7 140.8,133.2 139.2,141 
	135.7,146.2 130.3,150.2 118.8,153.3 109.3,152.2 102.2,147.3 97.5,140.3 95.2,130.8 96,120.7 105.8,106.5 "/>
<path class="st1" d="M186.7,78.6V112c-9.8,1.4-17.4,10.1-17.4,20.4c0,10.2,7.7,18.9,17.6,20.3v5.7H50.5c1.6-3.1,2.3-6.5,2.3-10.2
	c0-13.1-10.5-23.6-23.6-23.6c-2.6,0-5,0.4-7.4,1.1V78.6H186.7 M71.8,115.6c6.2,0,11.3-5.1,11.3-11.3c0-6.2-5.1-11.3-11.3-11.3
	S60.4,98,60.4,104.2C60.4,110.5,65.5,115.6,71.8,115.6 M163,109.4c3.7,0,6.5-2.8,6.8-6.7v-0.1v-0.1c0-3.8-3-6.8-6.8-6.8
	c-3.7,0-6.8,3.1-6.8,6.8S159.3,109.4,163,109.4 M139,104.5c2.4,0,4.1-1.7,4.1-4.1c0-2.3-1.8-4.1-4.1-4.1c-2.3,0-4.1,1.8-4.1,4.1
	C134.9,102.7,136.8,104.5,139,104.5 M118.2,154.7c13.5,0,24.4-10.9,24.4-24.4s-10.9-24.4-24.4-24.4s-24.4,10.9-24.4,24.4
	S104.7,154.7,118.2,154.7 M76.7,158.2c6.1,0,11.2-5.1,11.2-11.2c0-6.2-5-11.2-11.2-11.2c-6.2,0-11.2,5-11.2,11.2
	S70.5,158.2,76.7,158.2 M189.5,75.7H19v54.5c3-1.7,6.5-2.7,10.2-2.7c11.3,0,20.7,9.2,20.7,20.7c0,5-1.7,9.5-4.7,13.1h144.4v-11.1
	c-9.6-0.1-17.6-7.9-17.6-17.7s7.8-17.7,17.4-17.7L189.5,75.7L189.5,75.7z M71.8,112.8c-4.7,0-8.5-3.8-8.5-8.5s3.8-8.5,8.5-8.5
	s8.5,3.8,8.5,8.5C80.3,108.9,76.5,112.8,71.8,112.8L71.8,112.8z M163,106.5c-2.1,0-4-1.7-4-4c0-2.1,1.7-4,4-4c2.3,0,4,1.7,4,4
	C166.8,104.8,165.1,106.5,163,106.5L163,106.5z M139,101.7c-0.7,0-1.3-0.6-1.3-1.3c0-0.7,0.6-1.3,1.3-1.3c0.7,0,1.3,0.6,1.3,1.3
	C140.3,101.1,139.9,101.7,139,101.7L139,101.7z M118.2,151.9c-11.9,0-21.6-9.6-21.6-21.6c0-11.9,9.6-21.6,21.6-21.6
	s21.6,9.6,21.6,21.6C139.7,142.3,130.1,151.9,118.2,151.9L118.2,151.9z M76.7,155.3c-4.5,0-8.4-3.7-8.4-8.4c0-4.5,3.7-8.4,8.4-8.4
	s8.4,3.7,8.4,8.4C85.1,151.5,81.3,155.3,76.7,155.3L76.7,155.3z"/>
<path class="st1" d="M161.7,45.1c3.3,1.3,17.6,7.8,24.1,24.8H46l11.6-2.6c2.8,1.7,7.5,2.4,11.3,2.4c6.7,0,13.9-1.7,13.9-6.4
	c0-0.4-0.1-1-0.3-1.4l52.1-11.2c-4.3,1.6-7.2,4.1-7.2,7.7c0,6.4,9.8,9.6,19.4,9.6c4.8,0,9.4-0.9,12.9-2.3c5.7-2.4,6.5-5.7,6.5-7.4
	c0-6.4-9.8-9.6-19.4-9.6c-1.4,0-2.7,0-4.1,0.1L161.7,45.1 M108.5,68.4c2.1,0,9.1-0.3,9.6-4.8v-0.1v-0.1c0-3.3-3.5-5.1-9.6-5.1
	s-9.6,1.8-9.6,5.1C98.9,67.1,103.8,68.4,108.5,68.4 M161.9,42.1L75.7,60.5c2.6,0.7,4.3,1.7,4.3,2.8c0,2-5,3.5-11.1,3.5
	c-5.1,0-9.4-1.1-10.6-2.6L19,72.7h170.7C182.9,48.9,161.9,42.1,161.9,42.1L161.9,42.1z M146.8,65.4c-9.2,0-16.6-3.1-16.6-6.8
	c0-3.8,7.4-6.8,16.6-6.8s16.6,3.1,16.6,6.8C163.4,62.3,156,65.4,146.8,65.4L146.8,65.4z M108.5,65.5c-3.7,0-6.8-1-6.8-2.3
	c0-1.3,3-2.3,6.8-2.3c3.8,0,6.8,1,6.8,2.3C115.2,64.5,112.2,65.5,108.5,65.5L108.5,65.5z"/>
<g>
	
		<rect x="-1.8" y="94.5" transform="matrix(0.7071 -0.7071 0.7071 0.7071 -43.4322 103.9118)" class="st1" width="211" height="19.7"/>
	<path class="st0" d="M171.3,27.8l9,9L36.1,181l-9-9L171.3,27.8 M171.3,17.9l-4.9,4.9L22.1,167.1l-4.9,4.9l4.9,4.9l9,9l4.9,4.9
		l4.9-4.9L185.3,41.7l4.9-4.9l-4.9-4.9l-9-9L171.3,17.9L171.3,17.9z"/>
</g>
<path class="st1" d="M107.9,8.6c54.8,0,99.3,44.6,99.3,99.3s-44.6,99.3-99.3,99.3S8.5,162.7,8.5,107.9S53.1,8.6,107.9,8.6
	 M107.9,0.6C48.6,0.6,0.5,48.6,0.5,107.9s48,107.3,107.3,107.3s107.3-48,107.3-107.3S167.1,0.6,107.9,0.6L107.9,0.6z"/>
</svg>
