<?xml version="1.0" encoding="utf-8"?>
<!-- Generator: Adobe Illustrator 22.0.0, SVG Export Plug-In . SVG Version: 6.00 Build 0)  -->
<svg version="1.1" id="Layer_1" xmlns="http://www.w3.org/2000/svg" xmlns:xlink="http://www.w3.org/1999/xlink" x="0px" y="0px"
	 viewBox="0 0 216 216" style="enable-background:new 0 0 216 216;" xml:space="preserve">
<style type="text/css">
	.st0{fill:#FFFFFF;}
	.st1{fill:#1F9FFF;}
	.st2{enable-background:new    ;}
</style>
<circle class="st0" cx="107.3" cy="107.3" r="105.3"/>
<path class="st1" d="M215.1,107.9c0-59.3-48-107.3-107.2-107.3C48.6,0.6,0.5,48.6,0.5,107.9c0,39.5,21.3,74,53.1,92.6
	c0.2,0.1,0.5,0.3,0.7,0.4c0.9,0.5,1.9,1.1,2.9,1.6c0.6,0.3,1.1,0.6,1.7,0.9c0.3,0.2,0.6,0.3,0.9,0.4c14.5,7.3,30.8,11.4,48.1,11.4
	c52.3,0,95.9-37.4,105.4-87h-0.1C214.4,121.7,215.1,114.9,215.1,107.9z M107.9,8.6c26.6,0,50.7,10.5,68.5,27.5l-17.2,9.1
	c1.9,1.7,3.7,3.7,5.4,6.2l17.6-9.3c15.5,17.5,25,40.6,25,65.8c0,7-0.7,13.8-2.1,20.4H19.3L63,105.2c-2.2-2.1-5.2-3.4-8.6-3.4
	c-0.9,0-1.8,0.1-2.6,0.3L9.9,124.2c-0.9-5.3-1.4-10.8-1.4-16.3C8.5,53.1,53.1,8.6,107.9,8.6z"/>
<g class="st2">
	<path class="st0" d="M40.3,176.7v-24.3h5.9c2.1,0,3.7,0.3,4.8,0.8c1.1,0.5,2,1.4,2.4,2.5s0.7,2.6,0.7,4.3v8.8
		c0,1.8-0.2,3.3-0.7,4.4s-1.3,2-2.4,2.6c-1.1,0.6-2.7,0.8-4.7,0.8H40.3z M45.3,173.2h1.1c0.9,0,1.6-0.1,2-0.4s0.6-0.7,0.7-1.3
		c0.1-0.6,0.2-1.3,0.2-2.1v-10c0-0.8-0.1-1.5-0.2-2c-0.1-0.5-0.4-0.9-0.8-1.1s-1-0.4-1.9-0.4h-1V173.2z"/>
	<path class="st0" d="M56.1,176.7l4.7-24.3h5.5l4.7,24.3h-4.6l-0.9-5.3h-3.8l-0.9,5.3H56.1z M62.1,168.3H65l-1.5-9.8L62.1,168.3z"/>
	<path class="st0" d="M73.5,176.7v-24.3h4.9v24.3H73.5z"/>
	<path class="st0" d="M82.1,176.7v-24.3h6.3c1.6,0,3,0.2,4.2,0.6c1.2,0.4,2.1,1,2.7,2c0.6,0.9,0.9,2.2,0.9,3.9c0,1-0.1,1.9-0.3,2.7
		c-0.2,0.8-0.5,1.4-0.9,2c-0.4,0.6-1,1-1.8,1.4l3.4,11.8h-5.1l-2.8-11H87v11H82.1z M87,162.7h1.4c0.8,0,1.4-0.1,1.9-0.4
		s0.8-0.7,1-1.2c0.2-0.5,0.3-1.2,0.3-2c0-1.1-0.2-2-0.6-2.6c-0.4-0.6-1.2-0.9-2.3-0.9H87V162.7z"/>
	<path class="st0" d="M102.3,176.7V167l-4.7-14.7h4.6l2.6,8.5l2.4-8.5h4.5l-4.7,14.7v9.6H102.3z"/>
	<path class="st0" d="M121.3,176.7v-24.3h10.3v3.4h-5.3v6.6h4.5v3.5h-4.5v10.9H121.3z"/>
	<path class="st0" d="M134.1,176.7v-24.3h6.3c1.6,0,3,0.2,4.2,0.6s2.1,1,2.7,2c0.6,0.9,0.9,2.2,0.9,3.9c0,1-0.1,1.9-0.3,2.7
		c-0.2,0.8-0.5,1.4-0.9,2s-1,1-1.8,1.4l3.4,11.8h-5.1l-2.8-11H139v11H134.1z M139,162.7h1.4c0.8,0,1.4-0.1,1.9-0.4s0.8-0.7,1-1.2
		c0.2-0.5,0.3-1.2,0.3-2c0-1.1-0.2-2-0.6-2.6c-0.4-0.6-1.2-0.9-2.3-0.9H139V162.7z"/>
	<path class="st0" d="M151.6,176.7v-24.3h10.6v3.4h-5.6v6.5h4.3v3.4h-4.3v7.6h5.7v3.4H151.6z"/>
	<path class="st0" d="M164.7,176.7v-24.3h10.6v3.4h-5.6v6.5h4.3v3.4h-4.3v7.6h5.7v3.4H164.7z"/>
</g>
<path class="st1" d="M165.5,65.3v23.6c-6.9,1-12.3,7.1-12.3,14.4c0,7.2,5.4,13.3,12.4,14.3v4H69.5c1.1-2.2,1.6-4.6,1.6-7.2
	c0-9.2-7.4-16.6-16.6-16.6c-1.8,0-3.5,0.3-5.2,0.8V65.3H165.5 M84.5,91.4c4.4,0,8-3.6,8-8s-3.6-8-8-8c-4.4,0-8,3.6-8,8
	S80.1,91.4,84.5,91.4 M148.8,87c2.6,0,4.6-2,4.8-4.7l0-0.1v-0.1c0-2.7-2.1-4.8-4.8-4.8c-2.6,0-4.8,2.2-4.8,4.8S146.2,87,148.8,87
	 M131.9,83.6c1.7,0,2.9-1.2,2.9-2.9c0-1.6-1.3-2.9-2.9-2.9s-2.9,1.3-2.9,2.9S130.3,83.6,131.9,83.6 M117.2,119
	c9.5,0,17.2-7.7,17.2-17.2s-7.7-17.2-17.2-17.2c-9.5,0-17.2,7.7-17.2,17.2S107.7,119,117.2,119 M88,121.4c4.3,0,7.9-3.6,7.9-7.9
	c0-4.4-3.5-7.9-7.9-7.9c-4.4,0-7.9,3.5-7.9,7.9C80.1,117.9,83.6,121.4,88,121.4 M167.5,63.3H47.3v38.4c2.1-1.2,4.6-1.9,7.2-1.9
	c8,0,14.6,6.5,14.6,14.6c0,3.5-1.2,6.7-3.3,9.2h101.8v-7.8c-6.8-0.1-12.4-5.6-12.4-12.5c0-6.9,5.5-12.5,12.3-12.5V63.3L167.5,63.3z
	 M84.5,89.4c-3.3,0-6-2.7-6-6s2.7-6,6-6c3.3,0,6,2.7,6,6C90.5,86.7,87.8,89.4,84.5,89.4L84.5,89.4z M148.8,85
	c-1.5,0-2.8-1.2-2.8-2.8c0-1.5,1.2-2.8,2.8-2.8c1.6,0,2.8,1.2,2.8,2.8C151.5,83.8,150.3,85,148.8,85L148.8,85z M131.9,81.6
	c-0.5,0-0.9-0.4-0.9-0.9s0.4-0.9,0.9-0.9s0.9,0.4,0.9,0.9S132.5,81.6,131.9,81.6L131.9,81.6z M117.2,117c-8.4,0-15.2-6.8-15.2-15.2
	c0-8.4,6.8-15.2,15.2-15.2c8.4,0,15.2,6.8,15.2,15.2C132.4,110.2,125.6,117,117.2,117L117.2,117z M88,119.4c-3.2,0-5.9-2.6-5.9-5.9
	c0-3.2,2.6-5.9,5.9-5.9c3.3,0,5.9,2.6,5.9,5.9C93.9,116.7,91.2,119.4,88,119.4L88,119.4z"/>
<path class="st1" d="M147.9,41.7c2.3,0.9,12.4,5.5,17,17.5H66.3l8.2-1.8c2,1.2,5.3,1.7,8,1.7c4.7,0,9.8-1.2,9.8-4.5
	c0-0.3-0.1-0.7-0.2-1l36.7-7.9c-3,1.1-5.1,2.9-5.1,5.4c0,4.5,6.9,6.8,13.7,6.8c3.4,0,6.6-0.6,9.1-1.6c4-1.7,4.6-4,4.6-5.2
	c0-4.5-6.9-6.8-13.7-6.8c-1,0-1.9,0-2.9,0.1L147.9,41.7 M110.4,58.1c1.5,0,6.4-0.2,6.8-3.4l0-0.1v-0.1c0-2.3-2.5-3.6-6.8-3.6
	c-4.3,0-6.8,1.3-6.8,3.6C103.6,57.2,107.1,58.1,110.4,58.1 M148,39.6l-60.7,13c1.8,0.5,3,1.2,3,2c0,1.4-3.5,2.5-7.8,2.5
	c-3.6,0-6.6-0.8-7.5-1.8l-27.7,5.9h120.3C162.8,44.4,148,39.6,148,39.6L148,39.6z M137.4,56c-6.5,0-11.7-2.2-11.7-4.8
	c0-2.7,5.2-4.8,11.7-4.8s11.7,2.2,11.7,4.8C149.1,53.8,143.9,56,137.4,56L137.4,56z M110.4,56.1c-2.6,0-4.8-0.7-4.8-1.6
	c0-0.9,2.1-1.6,4.8-1.6c2.7,0,4.8,0.7,4.8,1.6C115.1,55.4,113,56.1,110.4,56.1L110.4,56.1z"/>
</svg>
