<?xml version="1.0" encoding="utf-8"?>
<!-- Generator: Adobe Illustrator 22.0.0, SVG Export Plug-In . SVG Version: 6.00 Build 0)  -->
<svg version="1.1" id="Layer_1" xmlns="http://www.w3.org/2000/svg" xmlns:xlink="http://www.w3.org/1999/xlink" x="0px" y="0px"
	 viewBox="0 0 216 216" style="enable-background:new 0 0 216 216;" xml:space="preserve">
<style type="text/css">
	.st0{fill:#FFFFFF;}
	.st1{fill:#F8991D;}
	.st2{enable-background:new    ;}
</style>
<circle class="st0" cx="107.3" cy="107.3" r="105.3"/>
<path class="st1" d="M2.5,128.3c9.5,49.5,53.1,87,105.4,87s95.9-37.4,105.4-87H2.5z"/>
<path class="st1" d="M107.9,8.6c54.8,0,99.3,44.6,99.3,99.3s-44.6,99.3-99.3,99.3S8.5,162.7,8.5,107.9S53.1,8.6,107.9,8.6
	 M107.9,0.6C48.6,0.6,0.5,48.6,0.5,107.9s48,107.3,107.3,107.3s107.3-48,107.3-107.3S167.1,0.6,107.9,0.6L107.9,0.6z"/>
<g class="st2">
	<path class="st0" d="M38.5,177c-1.6,0-2.9-0.3-3.9-1c-1-0.7-1.6-1.7-2.1-2.9c-0.4-1.3-0.6-2.7-0.6-4.4v-8.1c0-1.7,0.2-3.2,0.6-4.5
		s1.2-2.2,2.2-2.9c1-0.7,2.5-1,4.3-1c1.7,0,3.1,0.3,4.1,0.9c1,0.6,1.7,1.4,2.2,2.5c0.4,1.1,0.7,2.3,0.7,3.8v1.4h-4.8v-1.7
		c0-0.6,0-1.2-0.1-1.7c-0.1-0.5-0.3-0.9-0.6-1.2c-0.3-0.3-0.8-0.4-1.4-0.4c-0.7,0-1.1,0.2-1.4,0.5c-0.3,0.3-0.5,0.8-0.6,1.3
		c-0.1,0.5-0.1,1.1-0.1,1.7v10.8c0,0.7,0.1,1.3,0.2,1.8s0.3,1,0.7,1.3c0.3,0.3,0.8,0.5,1.4,0.5c0.6,0,1.1-0.2,1.4-0.5
		c0.3-0.3,0.6-0.8,0.7-1.3c0.1-0.5,0.2-1.2,0.2-1.9v-2.6h-2.4v-3H46v12.5h-3.2l-0.3-2.2c-0.3,0.7-0.8,1.4-1.4,1.8
		C40.4,176.8,39.5,177,38.5,177z"/>
	<path class="st0" d="M49.4,176.7v-24.3h4.9v20.9h5.7v3.4H49.4z"/>
	<path class="st0" d="M68.8,177c-1.8,0-3.3-0.3-4.3-0.9s-1.7-1.5-2.1-2.7c-0.4-1.2-0.6-2.6-0.6-4.3v-16.6h4.9v17.3
		c0,0.6,0,1.2,0.1,1.8s0.3,1,0.6,1.4c0.3,0.4,0.8,0.5,1.4,0.5c0.7,0,1.1-0.2,1.5-0.5c0.3-0.4,0.5-0.8,0.6-1.4
		c0.1-0.6,0.1-1.2,0.1-1.8v-17.3h4.9V169c0,1.7-0.2,3.1-0.6,4.3c-0.4,1.2-1.1,2.1-2.1,2.7S70.7,177,68.8,177z"/>
	<path class="st0" d="M81.6,176.7V156h-3.8v-3.7h12.4v3.7h-3.7v20.6H81.6z"/>
	<path class="st0" d="M92.5,176.7v-24.3h10.6v3.4h-5.6v6.5h4.4v3.4h-4.4v7.6h5.7v3.4H92.5z"/>
	<path class="st0" d="M105.6,176.7v-24.3h3.4l5.4,12.7v-12.7h4.1v24.3h-3.3l-5.4-13.4v13.4H105.6z"/>
	<path class="st0" d="M129.7,176.7v-24.3H140v3.4h-5.3v6.6h4.5v3.5h-4.5v10.9H129.7z"/>
	<path class="st0" d="M142.5,176.7v-24.3h6.3c1.6,0,3,0.2,4.2,0.6s2.1,1,2.7,2c0.6,0.9,0.9,2.2,0.9,3.9c0,1-0.1,1.9-0.3,2.7
		c-0.2,0.8-0.5,1.4-0.9,2c-0.4,0.6-1,1-1.8,1.4l3.4,11.8H152l-2.8-11h-1.7v11H142.5z M147.4,162.7h1.4c0.8,0,1.4-0.1,1.9-0.4
		c0.5-0.3,0.8-0.7,1-1.2c0.2-0.5,0.3-1.2,0.3-2c0-1.1-0.2-2-0.6-2.6s-1.2-0.9-2.3-0.9h-1.7V162.7z"/>
	<path class="st0" d="M160,176.7v-24.3h10.6v3.4h-5.6v6.5h4.3v3.4h-4.3v7.6h5.7v3.4H160z"/>
	<path class="st0" d="M173.1,176.7v-24.3h10.6v3.4h-5.6v6.5h4.3v3.4h-4.3v7.6h5.7v3.4H173.1z"/>
</g>
<path class="st1" d="M131.2,65.4c3.6-0.8,6.2-0.9,6.3-0.9l2.6-0.1v0.2l45.8-24.1l-3.7-7.1l-45.3,23.8
	C135.5,60.3,133.6,63,131.2,65.4z"/>
<path class="st1" d="M74.7,91.9v-2L4.9,126.7l3.7,7.1l66.6-35C74.9,96.6,74.7,94.3,74.7,91.9z"/>
<g>
	<path class="st1" d="M106.6,97.7c0,0-29.3,1.1-29.3-30.8C77.2,66.9,106.6,67.5,106.6,97.7z"/>
</g>
<g>
	<path class="st1" d="M106.6,122.7c0,0-29.3,1.1-29.3-30.8C77.2,91.9,106.6,92.5,106.6,122.7z"/>
</g>
<g>
	<path class="st1" d="M106.6,71.7c0,0-29.3,1.1-29.3-30.8C77.2,40.9,106.6,41.5,106.6,71.7z"/>
</g>
<g>
	<path class="st1" d="M108.2,97.7c0,0,29.3,1.1,29.3-30.8C137.6,66.9,108.2,67.5,108.2,97.7z"/>
</g>
<g>
	<path class="st1" d="M108.2,122.7c0,0,29.3,1.1,29.3-30.8C137.6,91.9,108.2,92.5,108.2,122.7z"/>
</g>
<g>
	<path class="st1" d="M108.2,71.7c0,0,29.3,1.1,29.3-30.8C137.6,40.9,108.2,41.5,108.2,71.7z"/>
</g>
<g>
	<path class="st1" d="M107.3,53.8c0,0,21.6-19.9-1-42.5C106.3,11.3,86,32.4,107.3,53.8z"/>
</g>
</svg>
