<?xml version="1.0" encoding="utf-8"?>
<!-- Generator: Adobe Illustrator 22.0.0, SVG Export Plug-In . SVG Version: 6.00 Build 0)  -->
<svg version="1.1" id="Layer_1" xmlns="http://www.w3.org/2000/svg" xmlns:xlink="http://www.w3.org/1999/xlink" x="0px" y="0px"
	 viewBox="0 0 216 216" style="enable-background:new 0 0 216 216;" xml:space="preserve">
<style type="text/css">
	.st0{fill:#FFFFFF;}
	.st1{fill:#F8991D;}
</style>
<circle class="st0" cx="107.3" cy="107.3" r="105.3"/>
<g>
	<path class="st1" d="M105.1,156.4c0,0-49.2,1.8-49.2-51.7C55.7,104.6,105.1,105.7,105.1,156.4z"/>
</g>
<g>
	<path class="st1" d="M105.1,198.3c0,0-49.2,1.8-49.2-51.7C55.7,146.6,105.1,147.6,105.1,198.3z"/>
</g>
<g>
	<path class="st1" d="M105.1,112.7c0,0-49.2,1.8-49.2-51.7C55.7,61,105.1,62,105.1,112.7z"/>
</g>
<g>
	<path class="st1" d="M107.7,156.4c0,0,49.2,1.8,49.2-51.7C157.1,104.6,107.7,105.7,107.7,156.4z"/>
</g>
<g>
	<path class="st1" d="M107.7,198.3c0,0,49.2,1.8,49.2-51.7C157.1,146.6,107.7,147.6,107.7,198.3z"/>
</g>
<g>
	<path class="st1" d="M107.7,112.7c0,0,49.2,1.8,49.2-51.7C157.1,61,107.7,62,107.7,112.7z"/>
</g>
<g>
	
		<rect x="-1.8" y="94.5" transform="matrix(0.7071 -0.7071 0.7071 0.7071 -43.4322 103.9118)" class="st1" width="211" height="19.7"/>
	<path class="st0" d="M171.3,27.8l9,9L36.1,181l-9-9L171.3,27.8 M171.3,17.9l-4.9,4.9L22.1,167.1l-4.9,4.9l4.9,4.9l9,9l4.9,4.9
		l4.9-4.9L185.3,41.7l4.9-4.9l-4.9-4.9l-9-9L171.3,17.9L171.3,17.9z"/>
</g>
<g>
	<path class="st1" d="M106.2,82.7c0,0,36.3-33.4-1.7-71.4C104.5,11.3,70.5,46.7,106.2,82.7z"/>
</g>
<path class="st1" d="M107.9,8.6c54.8,0,99.3,44.6,99.3,99.3s-44.6,99.3-99.3,99.3S8.5,162.7,8.5,107.9S53.1,8.6,107.9,8.6
	 M107.9,0.6C48.6,0.6,0.5,48.6,0.5,107.9s48,107.3,107.3,107.3s107.3-48,107.3-107.3S167.1,0.6,107.9,0.6L107.9,0.6z"/>
</svg>
