<?xml version="1.0" encoding="utf-8"?>
<!-- Generator: Adobe Illustrator 22.0.0, SVG Export Plug-In . SVG Version: 6.00 Build 0)  -->
<svg version="1.1" id="Layer_1" xmlns="http://www.w3.org/2000/svg" xmlns:xlink="http://www.w3.org/1999/xlink" x="0px" y="0px"
	 viewBox="0 0 216 216" style="enable-background:new 0 0 216 216;" xml:space="preserve">
<style type="text/css">
	.st0{fill:#FFFFFF;}
	.st1{fill:#FBB040;}
	.st2{fill:#009444;}
</style>
<circle class="st0" cx="107.3" cy="107.3" r="105.3"/>
<path class="st1" d="M107.9,8.6c54.8,0,99.3,44.6,99.3,99.3s-44.6,99.3-99.3,99.3S8.5,162.7,8.5,107.9S53.1,8.6,107.9,8.6
	 M107.9,0.6C48.6,0.6,0.5,48.6,0.5,107.9s48,107.3,107.3,107.3s107.3-48,107.3-107.3S167.1,0.6,107.9,0.6L107.9,0.6z"/>
<g>
	<g>
		<path class="st0" d="M164.3,53.8c0-13.5-28.4-24.3-63.2-24.3S37.8,40.3,37.8,53.8c0,4.4,3.1,8.6,8.4,12.1v81.9
			c0,5.9,4.8,10.7,10.7,10.7h88.5c5.9,0,10.7-4.8,10.7-10.7V65.9C161.2,62.4,164.3,58.2,164.3,53.8z"/>
		<path class="st1" d="M101,33.7c33.7,0,59,10.7,59,20.1c0,3.5-3.5,6.6-6.6,8.6l-1.8,1.3v2.2v81.9c0,3.5-2.8,6.5-6.5,6.5H56.6
			c-3.5,0-6.5-2.8-6.5-6.5V65.9v-2.2l-1.8-1.3c-3-2-6.6-5.1-6.6-8.6C42,44.4,67.2,33.7,101,33.7 M101,29.5
			c-35,0-63.2,10.8-63.2,24.3c0,4.4,3.1,8.6,8.4,12.1v81.9c0,5.9,4.8,10.7,10.7,10.7h88.5c5.9,0,10.7-4.8,10.7-10.7V65.9
			c5.3-3.5,8.4-7.7,8.4-12.1C164.3,40.3,136,29.5,101,29.5L101,29.5z"/>
	</g>
	<path class="st1" d="M178.3,53.8c0-13.5-28.4-24.3-63.2-24.3S51.9,40.3,51.9,53.8c0,4.4,3.1,8.6,8.4,12.1v81.9
		c0,5.9,4.8,10.7,10.7,10.7h88.5c5.9,0,10.7-4.8,10.7-10.7V65.9C175.2,62.4,178.3,58.2,178.3,53.8z"/>
	<circle class="st0" cx="85.8" cy="73.5" r="4.2"/>
	<circle class="st0" cx="130.3" cy="131.1" r="4.2"/>
	<circle class="st0" cx="136.8" cy="139.9" r="2.2"/>
	<circle class="st0" cx="136.8" cy="61.3" r="2.2"/>
	<circle class="st0" cx="72.6" cy="145.6" r="2.2"/>
	<circle class="st0" cx="164.9" cy="103.4" r="2.2"/>
	<circle class="st0" cx="162.2" cy="96.2" r="1.1"/>
	<circle class="st0" cx="93.8" cy="75.2" r="1.1"/>
	<circle class="st0" cx="79.7" cy="142.6" r="1.1"/>
	<circle class="st0" cx="151" cy="47.1" r="1.1"/>
	<circle class="st0" cx="65.7" cy="61.1" r="1.1"/>
	<circle class="st0" cx="158" cy="145.4" r="1.1"/>
	<circle class="st0" cx="95.2" cy="111" r="3"/>
</g>
<g>
	<polygon class="st2" points="122.3,171.3 122.3,121.3 100.7,121.3 100.7,171.3 87.5,171.3 111.5,195.3 135.6,171.3 	"/>
	<path class="st0" d="M111.5,201.2l-34.1-34.1h19.1v-50h29.9v50h19.2L111.5,201.2z M97.8,175.5l13.8,13.8l13.8-13.8H118v-50h-13.1
		v50H97.8z"/>
</g>
<polygon class="st1" points="122.3,171.3 122.3,121.3 100.7,121.3 100.7,171.3 87.5,171.3 111.5,195.3 135.6,171.3 "/>
</svg>
