<?xml version="1.0" encoding="utf-8"?>
<!-- Generator: Adobe Illustrator 22.0.0, SVG Export Plug-In . SVG Version: 6.00 Build 0)  -->
<svg version="1.1" id="Layer_1" xmlns="http://www.w3.org/2000/svg" xmlns:xlink="http://www.w3.org/1999/xlink" x="0px" y="0px"
	 viewBox="0 0 216 216" style="enable-background:new 0 0 216 216;" xml:space="preserve">
<style type="text/css">
	.st0{fill:#FFFFFF;}
	.st1{fill:#FBB040;}
	.st2{fill:#009444;}
	.st3{enable-background:new    ;}
</style>
<circle class="st0" cx="107.3" cy="107.3" r="105.3"/>
<g>
	<path class="st0" d="M144.8,36.8c0-9.6-20.2-17.3-45-17.3s-45,7.7-45,17.3c0,3.1,2.2,6.1,6,8.6v58.3c0,4.2,3.4,7.6,7.6,7.6h63
		c4.2,0,7.6-3.4,7.6-7.6V45.4C142.6,42.9,144.8,39.9,144.8,36.8z"/>
	<path class="st1" d="M99.8,22.5c24,0,42,7.6,42,14.3c0,2.5-2.5,4.7-4.7,6.1l-1.3,0.9v1.6v58.3c0,2.5-2,4.6-4.6,4.6h-63
		c-2.5,0-4.6-2-4.6-4.6V45.4v-1.6l-1.3-0.9c-2.1-1.4-4.7-3.6-4.7-6.1C57.8,30.1,75.7,22.5,99.8,22.5 M99.8,19.5
		c-24.9,0-45,7.7-45,17.3c0,3.1,2.2,6.1,6,8.6v58.3c0,4.2,3.4,7.6,7.6,7.6h63c4.2,0,7.6-3.4,7.6-7.6V45.4c3.8-2.5,6-5.5,6-8.6
		C144.8,27.2,124.7,19.5,99.8,19.5L99.8,19.5z"/>
</g>
<path class="st1" d="M107.9,8.6c54.8,0,99.3,44.6,99.3,99.3s-44.6,99.3-99.3,99.3S8.5,162.7,8.5,107.9S53.1,8.6,107.9,8.6
	 M107.9,0.6C48.6,0.6,0.5,48.6,0.5,107.9s48,107.3,107.3,107.3s107.3-48,107.3-107.3S167.1,0.6,107.9,0.6L107.9,0.6z"/>
<path class="st1" d="M154.8,36.8c0-9.6-20.2-17.3-45-17.3s-45,7.7-45,17.3c0,3.1,2.2,6.1,6,8.6v58.3c0,4.2,3.4,7.6,7.6,7.6h63
	c4.2,0,7.6-3.4,7.6-7.6V45.4C152.6,42.9,154.8,39.9,154.8,36.8z"/>
<circle class="st0" cx="86.8" cy="50.8" r="3"/>
<circle class="st0" cx="117.8" cy="91.8" r="3"/>
<circle class="st0" cx="122.4" cy="98.1" r="1.6"/>
<circle class="st0" cx="122.4" cy="42.1" r="1.6"/>
<circle class="st0" cx="77.4" cy="102.1" r="1.6"/>
<circle class="st0" cx="142.4" cy="72.1" r="1.6"/>
<circle class="st0" cx="140.5" cy="67" r="0.8"/>
<circle class="st0" cx="92.5" cy="52" r="0.8"/>
<circle class="st0" cx="82.5" cy="100" r="0.8"/>
<circle class="st0" cx="132.5" cy="32" r="0.8"/>
<circle class="st0" cx="72.5" cy="42" r="0.8"/>
<circle class="st0" cx="137.5" cy="102" r="0.8"/>
<circle class="st0" cx="93.5" cy="77.5" r="2.1"/>
<g>
	<polygon class="st2" points="153.4,107.6 153.4,72 138,72 138,107.6 128.6,107.6 145.7,124.7 162.8,107.6 	"/>
	<path class="st0" d="M145.7,128.9l-24.3-24.3H135V69h21.3v35.6H170L145.7,128.9z M135.9,110.6l9.8,9.8l9.8-9.8h-5.2V75H141v35.6
		H135.9z"/>
</g>
<polygon class="st1" points="153.4,107.6 153.4,72 138,72 138,107.6 128.6,107.6 145.7,124.7 162.8,107.6 "/>
<path class="st1" d="M2.5,128.3c9.5,49.5,53.1,87,105.4,87s95.9-37.4,105.4-87H2.5z"/>
<g class="st3">
	<path class="st0" d="M46.3,176.7v-24.3h4.9v20.9h5.7v3.4H46.3z"/>
	<path class="st0" d="M65.7,177c-1.8,0-3.2-0.3-4.2-1s-1.8-1.6-2.2-2.7c-0.5-1.2-0.7-2.6-0.7-4.3v-9.1c0-1.7,0.2-3.1,0.7-4.3
		s1.2-2.1,2.2-2.7s2.4-0.9,4.2-0.9c1.8,0,3.2,0.3,4.3,0.9c1.1,0.6,1.8,1.5,2.3,2.7c0.5,1.2,0.7,2.6,0.7,4.2v9.1
		c0,1.7-0.2,3.1-0.7,4.3c-0.4,1.2-1.2,2.1-2.3,2.7C68.9,176.7,67.5,177,65.7,177z M65.7,173.4c0.6,0,1.1-0.1,1.4-0.4
		s0.5-0.7,0.6-1.2c0.1-0.5,0.1-1,0.1-1.6v-11.5c0-0.6-0.1-1.1-0.1-1.6c-0.1-0.5-0.3-0.9-0.6-1.2s-0.8-0.4-1.4-0.4
		c-0.6,0-1,0.1-1.4,0.4c-0.3,0.3-0.5,0.7-0.6,1.2c-0.1,0.5-0.2,1-0.2,1.6v11.5c0,0.6,0,1.1,0.1,1.6s0.3,0.9,0.6,1.2
		S65.1,173.4,65.7,173.4z"/>
	<path class="st0" d="M78.4,176.7l-3.1-24.3h4.2l1.7,14.8l2.1-14.8h3.3l2.2,14.8l1.7-14.8h4.1l-3.1,24.3h-4.2l-2.4-15.4l-2.3,15.4
		H78.4z"/>
	<path class="st0" d="M111.6,177c-1.8,0-3.2-0.3-4.3-1c-1.1-0.7-1.8-1.6-2.2-2.8c-0.4-1.2-0.6-2.6-0.6-4.2v-8.7
		c0-1.7,0.2-3.1,0.6-4.3s1.2-2.1,2.2-2.8c1.1-0.7,2.5-1,4.3-1c1.7,0,3.1,0.3,4.1,0.9c1,0.6,1.7,1.4,2.1,2.5c0.4,1.1,0.6,2.3,0.6,3.7
		v2h-4.8v-2.3c0-0.6,0-1.1-0.1-1.6c-0.1-0.5-0.2-0.9-0.5-1.2c-0.3-0.3-0.7-0.5-1.4-0.5s-1.1,0.2-1.4,0.5c-0.3,0.3-0.5,0.7-0.6,1.2
		c-0.1,0.5-0.1,1.1-0.1,1.7v11c0,0.7,0.1,1.3,0.2,1.8c0.1,0.5,0.3,0.9,0.6,1.2c0.3,0.3,0.8,0.4,1.3,0.4c0.6,0,1.1-0.2,1.4-0.5
		c0.3-0.3,0.4-0.7,0.5-1.2c0.1-0.5,0.1-1.1,0.1-1.6v-2.4h4.8v2c0,1.4-0.2,2.7-0.6,3.8c-0.4,1.1-1.1,2-2.1,2.6
		C114.7,176.7,113.3,177,111.6,177z"/>
	<path class="st0" d="M120.2,176.7l4.7-24.3h5.5l4.7,24.3h-4.6l-0.9-5.3h-3.8l-0.9,5.3H120.2z M126.2,168.3h2.9l-1.5-9.8
		L126.2,168.3z"/>
	<path class="st0" d="M137.5,176.7v-24.3h6.3c1.6,0,3,0.2,4.2,0.6c1.2,0.4,2.1,1,2.7,2c0.6,0.9,0.9,2.2,0.9,3.9c0,1-0.1,1.9-0.3,2.7
		c-0.2,0.8-0.5,1.4-0.9,2s-1,1-1.8,1.4l3.4,11.8H147l-2.8-11h-1.7v11H137.5z M142.5,162.7h1.4c0.8,0,1.4-0.1,1.9-0.4s0.8-0.7,1-1.2
		c0.2-0.5,0.3-1.2,0.3-2c0-1.1-0.2-2-0.6-2.6s-1.2-0.9-2.3-0.9h-1.7V162.7z"/>
	<path class="st0" d="M155,176.7v-24.3h6.2c1.1,0,2,0.1,2.9,0.3c0.9,0.2,1.7,0.5,2.4,1c0.7,0.5,1.2,1.1,1.6,1.9s0.6,1.9,0.6,3.2
		c0,1-0.1,1.8-0.4,2.5c-0.3,0.7-0.7,1.2-1.2,1.6c-0.5,0.4-1.2,0.7-1.9,0.8c0.9,0.1,1.7,0.5,2.4,1c0.6,0.5,1.1,1.2,1.4,2
		c0.3,0.8,0.5,1.8,0.5,3c0,1.2-0.2,2.3-0.5,3.2c-0.3,0.9-0.8,1.6-1.4,2.2c-0.6,0.6-1.3,1-2.2,1.3c-0.9,0.3-1.9,0.4-3.1,0.4H155z
		 M160,162.2h1.2c0.9,0,1.5-0.1,2-0.4c0.4-0.3,0.7-0.6,0.9-1.1s0.3-1.1,0.3-1.9s-0.1-1.3-0.4-1.8s-0.6-0.8-1.1-1s-1.2-0.3-1.9-0.3
		H160V162.2z M160,173.2h1.4c1.2,0,2.1-0.3,2.6-0.9c0.5-0.6,0.7-1.5,0.7-2.8c0-1-0.1-1.7-0.3-2.3c-0.2-0.6-0.6-1-1.1-1.3
		c-0.5-0.3-1.1-0.4-2-0.4H160V173.2z"/>
</g>
</svg>
