<?xml version="1.0" encoding="utf-8"?>
<!-- Generator: Adobe Illustrator 22.0.0, SVG Export Plug-In . SVG Version: 6.00 Build 0)  -->
<svg version="1.1" id="Layer_1" xmlns="http://www.w3.org/2000/svg" xmlns:xlink="http://www.w3.org/1999/xlink" x="0px" y="0px"
	 viewBox="0 0 216 216" style="enable-background:new 0 0 216 216;" xml:space="preserve">
<style type="text/css">
	.st0{fill:#FFFFFF;}
	.st1{fill:#006838;}
</style>
<circle class="st0" cx="107.3" cy="107.3" r="105.3"/>
<path class="st1" d="M102.2,146l-1.4-0.1c-8.1-1-15.7-4.3-21.1-9.4l-1.1-1.1l-1.4,0.8c-3.2,2.1-7,3.2-11.1,3.2
	c-8.5,0-16.1-5.1-17.9-12l-0.6-1.9l-1.9,0.4c-1.7,0.4-3.2,0.6-4.8,0.6c-11.6,0-20.9-9.4-20.9-20.9c0-7.7,4.3-14.9,11.1-18.4l1.4-0.7
	l-0.3-1.5C32,83.7,32,82.5,32,81.4c0-11.6,9.4-20.9,20.9-20.9c1.4,0,2.9,0.1,4.3,0.4l2.2,0.4l0.3-2.2C61,48.7,70,41,80.4,41
	c2.3,0,4.8,0.4,7,1.2l1.9,0.7l0.7-1.8c3.3-7.8,10.9-13.1,19.4-13.1c7.8,0,14.9,4.3,18.6,11.1l0.8,1.5l1.7-0.6c1.9-0.6,4-0.8,5.9-0.8
	c10.7,0,20,8.4,20.9,19.1l0.1,1.8l1.8,0.1c11,0.7,19.7,9.8,19.7,20.9c0,0.8,0,1.7-0.1,2.8l-0.1,1.5l1.5,0.6
	c7.8,3.3,12.9,10.9,12.9,19.4c0,11.6-9.4,20.9-20.9,20.9c-2.3,0-4.7-0.4-6.9-1.1l-2.2-0.7l-0.6,2.2c-1.7,7.3-9.5,12.5-18.7,12.5
	c-3.7,0-7.2-0.8-10.3-2.5l-1.2-0.7l-1.1,1c-4.3,3.7-9.6,6.5-15.5,7.8l-1.7,0.4l-1.7,0.3c-2.1,0.3-4.3,0.4-6.3,0.4
	c-0.7,0-1.2,0-1.8,0h-1.4l-0.1,0.4L102.2,146z"/>
<path class="st1" d="M109.3,30.2c7,0,13.3,3.9,16.7,10l1.7,3l3.3-1c1.8-0.6,3.6-0.8,5.4-0.8c9.8,0,18,7.6,18.9,17.3l0.3,3.6l3.6,0.3
	c9.9,0.6,17.8,8.8,17.8,18.9c0,0.7,0,1.5-0.1,2.5l-0.4,3.2l2.9,1.2c7,2.9,11.7,9.8,11.7,17.5c0,10.5-8.5,18.9-18.9,18.9
	c-2.1,0-4.1-0.4-6.2-1.1l-4.4-1.5l-1.1,4.5c-1.5,6.3-8.5,11-16.7,11c-3.3,0-6.6-0.8-9.4-2.2l-2.5-1.4l-2.1,1.9
	c-4,3.4-9.1,6.1-14.7,7.4l-1.5,0.4l-1.7,0.3c-2.1,0.3-4,0.4-6.1,0.4c-0.6,0-1.2,0-1.8,0h-1.4l-1.5-0.1c-7.7-1-14.7-4-19.8-8.8
	l-2.3-2.2l-2.8,1.8c-2.9,1.8-6.3,2.9-9.9,2.9c-7.6,0-14.3-4.4-16-10.5l-1.1-3.9l-3.9,1c-1.4,0.3-2.9,0.6-4.3,0.6
	c-10.5,0-18.9-8.5-18.9-18.9c0-7,3.9-13.3,10-16.7l2.6-1.4l-0.6-2.9c-0.1-1.1-0.3-2.2-0.3-3.2c0-10.5,8.5-18.9,18.9-18.9
	c1.2,0,2.6,0.1,3.9,0.4l4.3,0.8l0.6-4.4c1.2-9.2,9.4-16.2,18.7-16.2c2.2,0,4.3,0.4,6.3,1.1l3.7,1.4l1.5-3.7
	C94.8,34.8,101.6,30.2,109.3,30.2 M109.3,26C99.7,26,91.5,32,88,40.3c-2.5-0.8-5.1-1.4-7.8-1.4C68.5,39,59,47.6,57.5,58.8
	c-1.5-0.3-3-0.4-4.7-0.4c-12.7,0-23,10.3-23,23c0,1.4,0.1,2.6,0.4,3.9C22.9,89.1,18,96.8,18,105.6c0,12.7,10.3,23,23,23
	c1.8,0,3.6-0.3,5.2-0.7c2.1,7.7,10.2,13.5,20,13.5c4.5,0,8.8-1.2,12.2-3.4c5.6,5.2,13.3,8.8,22.3,9.9c0.3,0.8,1,1.1,1.7,1.1
	s1.2-0.3,1.5-0.8c0.7,0,1.2,0,1.9,0c2.2,0,4.5-0.1,6.6-0.6c0,1.7,0,3.2,0,4.8c0,1.1,0.8,1.7,1.8,1.7c0.8,0,1.7-0.6,1.7-1.7
	c0-1.8,0-3.7,0-5.5c6.3-1.5,12.1-4.4,16.5-8.3c3.3,1.7,7.2,2.8,11.3,2.8c10.3,0,18.9-6.1,20.8-14.2c2.3,0.8,4.8,1.2,7.6,1.2
	c12.7,0,23-10.3,23-23c0-9.6-5.9-17.8-14.2-21.2c0.1-1,0.3-1.9,0.3-3c0-12.2-9.6-22.2-21.6-23c-1.2-11.6-11.1-20.8-23.1-20.8
	c-2.3,0-4.5,0.4-6.6,1C125.9,31.1,118.2,26,109.3,26L109.3,26z"/>
<path class="st1" d="M107.9,8.6c54.8,0,99.3,44.6,99.3,99.3s-44.6,99.3-99.3,99.3S8.5,162.7,8.5,107.9S53.1,8.6,107.9,8.6
	 M107.9,0.6C48.6,0.6,0.5,48.6,0.5,107.9s48,107.3,107.3,107.3s107.3-48,107.3-107.3S167.1,0.6,107.9,0.6L107.9,0.6z"/>
<g>
	<path class="st0" d="M87.6,174.1l1.1-2.1c0.1-0.1,8-15.4,2.2-27.2c-3.4-6.9-12.7-11-20-13.2l-4-1.2l3.9-1.4c2.8-1,5.1-2.6,6.9-4.8
		l1-1.1l1.1,1c5.8,5.6,13.1,9.2,20.9,10.3l1.2,0.1v12.9c0,0.1,0,0.1,0,0.1s0.1,0.1,0.3,0.1c0.3,0,0.3-0.1,0.3-0.3v-12.8l1.5,0.1
		c0.7,0,1.5,0.1,2.2,0.1c1.9,0,4-0.1,5.9-0.4l1.7-0.3v18.4c0,0.1,0,0.1,0,0.1s0.1,0.1,0.3,0.1c0.3,0,0.3-0.1,0.3-0.3v-18.7l1.1-0.3
		c6.3-1.5,12.2-4.8,17.1-9.4l1.1-1l1,1.1c1.4,1.8,3.3,3.2,5.4,4l2.6,1.1l-2.5,1.4c-10.7,5.8-17.2,11.1-17.6,14.6
		c-1,8.1,7.8,26.6,8,26.7l1,1.9C131.4,174.1,87.6,174.1,87.6,174.1z"/>
	<path class="st1" d="M78.8,125.1c5.8,5.6,13.3,9.5,21.7,10.7c0,3.9,0,7.8,0,11.7c0,1.1,0.8,1.7,1.8,1.7c0.8,0,1.7-0.6,1.7-1.7
		c0-3.9,0-7.6,0-11.4c0.8,0,1.5,0.1,2.3,0.1c2.1,0,4.1-0.1,6.1-0.4c0,5.6,0,11.3,0,16.9c0,1.1,0.8,1.7,1.8,1.7
		c0.8,0,1.7-0.6,1.7-1.7c0-5.9,0-11.7,0-17.6c6.7-1.7,12.8-5.1,17.8-9.8c1.5,1.9,3.6,3.4,5.9,4.4c-7.8,4.3-17.6,10.5-18.3,15.7
		c-1.1,8.7,8.1,27.4,8.1,27.4H89.8c0,0,8.4-15.8,2.2-28.5c-3.6-7.4-13.3-11.7-20.8-13.9C74.3,129.2,76.7,127.4,78.8,125.1 M78.5,121
		l-1.9,2.2c-1.7,2.1-3.9,3.6-6.3,4.4l-7.8,2.8l8,2.5c7,2.1,16,6.1,19.1,12.5c5.5,11.3-2.1,25.9-2.1,26l-2.1,4h4.5h39.4h4.4l-1.9-4
		c-2.5-5.1-8.7-19.5-7.8-25.9c0.3-2.3,4.8-7,16.9-13.6l5.1-2.8l-5.4-2.2c-1.9-0.8-3.6-2.1-4.8-3.6l-1.9-2.3l-2.2,2.1
		c-4.7,4.4-10.3,7.6-16.5,9.1l-1.5,0.4l-1.7,0.3c-1.9,0.3-3.9,0.4-5.6,0.4c-0.7,0-1.4,0-2.2-0.1l-1.7-0.1l-1.5-0.3
		c-7.7-1.1-14.6-4.5-20.2-9.9L78.5,121L78.5,121z"/>
</g>
<g>
	<g>
		<path class="st0" d="M60.9,134c13.2-1,21.5-8.8,28.2-19.8c1.1-1.9-1.8-3.6-3-1.8c-5.9,9.9-13.3,17.3-25.2,18.2
			C58.7,130.6,58.7,134,60.9,134L60.9,134z"/>
	</g>
</g>
<g>
	<g>
		<path class="st0" d="M149.1,131.6c-9.5-1.1-18-11.7-20.6-20.2c-0.6-2.1-4-1.4-3.3,0.8c3,10.3,12.7,21.5,23.9,22.8
			C151.2,135.3,151.2,131.8,149.1,131.6L149.1,131.6z"/>
	</g>
</g>
<g>
	<g>
		<path class="st0" d="M57.3,88.8c2.6-8.1,10.2-7.8,16.5-3.9c1,0.6,2.3,0,2.5-1c1.1-5.2,6.6-3.7,10.2-6.1c2.5-1.5,4.3-3.3,7.2-4.1
			c7.2-2.1,12.8,2.5,16.9,7.8c0.6,0.8,1.9,1.2,2.8,0.4c3.4-4.1,8.8-7.8,14-4.3c1.8,1.2,3.6-1.7,1.8-3c-6.5-4.5-13.6-0.7-18.3,4.7
			c1,0.1,1.8,0.3,2.8,0.4c-7-9.2-17.1-13.5-27.2-6.2c-0.8,0.7-1.9,2.1-2.9,2.5c-0.8,0.3-3.2-0.4-4.7,0.3c-2.9,1.1-5.1,3.6-5.6,6.6
			c0.8-0.3,1.7-0.7,2.5-1c-8.4-5.4-18.2-4.5-21.6,5.8C53.3,90,56.6,91,57.3,88.8L57.3,88.8z"/>
	</g>
</g>
<g>
	<g>
		<path class="st0" d="M139.5,88.2c2.8-0.3,5.8,0.1,8.4,1.1c6.7,2.5,8.3,8.7,7.2,15.3c-0.4,2.2,2.9,3,3.3,1c1.2-7.3,0-14.9-7.2-18.6
			c-3.4-1.8-7.7-2.5-11.7-2.2C137.3,84.9,137.1,88.4,139.5,88.2L139.5,88.2z"/>
	</g>
</g>
</svg>
