<?xml version="1.0" encoding="utf-8"?>
<!-- Generator: Adobe Illustrator 22.0.0, SVG Export Plug-In . SVG Version: 6.00 Build 0)  -->
<svg version="1.1" id="Layer_1" xmlns="http://www.w3.org/2000/svg" xmlns:xlink="http://www.w3.org/1999/xlink" x="0px" y="0px"
	 viewBox="0 0 216 216" style="enable-background:new 0 0 216 216;" xml:space="preserve">
<style type="text/css">
	.st0{fill:#FFFFFF;}
	.st1{fill:#006838;}
	.st2{enable-background:new    ;}
</style>
<circle class="st0" cx="107.3" cy="107.3" r="105.3"/>
<path class="st0" d="M104.2,101.9l-1-0.1c-5.9-0.7-11.4-3.1-15.3-6.8l-0.8-0.8l-1,0.6c-2.3,1.5-5.1,2.3-8.1,2.3
	c-6.2,0-11.7-3.7-13-8.7L64.6,87l-1.4,0.3c-1.2,0.3-2.3,0.4-3.5,0.4c-8.4,0-15.2-6.8-15.2-15.2c0-5.6,3.1-10.8,8.1-13.4l1-0.5
	l-0.2-1.1c-0.2-0.9-0.2-1.8-0.2-2.6c0-8.4,6.8-15.2,15.2-15.2c1,0,2.1,0.1,3.1,0.3l1.6,0.3l0.2-1.6c1-7.5,7.5-13.1,15.1-13.1
	c1.7,0,3.5,0.3,5.1,0.9l1.4,0.5l0.5-1.3c2.4-5.7,7.9-9.5,14.1-9.5c5.7,0,10.8,3.1,13.5,8.1l0.6,1.1l1.2-0.4c1.4-0.4,2.9-0.6,4.3-0.6
	c7.8,0,14.5,6.1,15.2,13.9l0.1,1.3l1.3,0.1c8,0.5,14.3,7.1,14.3,15.2c0,0.6,0,1.2-0.1,2l-0.1,1.1l1.1,0.4c5.7,2.4,9.4,7.9,9.4,14.1
	c0,8.4-6.8,15.2-15.2,15.2c-1.7,0-3.4-0.3-5-0.8l-1.6-0.5l-0.4,1.6c-1.2,5.3-6.9,9.1-13.6,9.1c-2.7,0-5.2-0.6-7.5-1.8l-0.9-0.5
	l-0.8,0.7c-3.1,2.7-7,4.7-11.3,5.7l-1.2,0.3l-1.2,0.2c-1.5,0.2-3.1,0.3-4.6,0.3c-0.5,0-0.9,0-1.3,0h-1l-0.1,0.3L104.2,101.9z"/>
<path class="st1" d="M109.4,17.7c5.1,0,9.7,2.8,12.1,7.3l1.2,2.2l2.4-0.7c1.3-0.4,2.6-0.6,3.9-0.6c7.1,0,13.1,5.5,13.7,12.6l0.2,2.6
	l2.6,0.2c7.2,0.4,12.9,6.4,12.9,13.7c0,0.5,0,1.1-0.1,1.8l-0.3,2.3l2.1,0.9c5.1,2.1,8.5,7.1,8.5,12.7c0,7.6-6.2,13.7-13.7,13.7
	c-1.5,0-3-0.3-4.5-0.8l-3.2-1.1l-0.8,3.3c-1.1,4.6-6.2,8-12.1,8c-2.4,0-4.8-0.6-6.8-1.6l-1.8-1l-1.5,1.4c-2.9,2.5-6.6,4.4-10.7,5.4
	l-1.1,0.3l-1.2,0.2c-1.5,0.2-2.9,0.3-4.4,0.3c-0.4,0-0.9,0-1.3,0h-1l-1.1-0.1c-5.6-0.7-10.7-2.9-14.4-6.4l-1.7-1.6l-2,1.3
	c-2.1,1.3-4.6,2.1-7.2,2.1c-5.5,0-10.4-3.2-11.6-7.6l-0.8-2.8l-2.8,0.7c-1,0.2-2.1,0.4-3.1,0.4c-7.6,0-13.7-6.2-13.7-13.7
	c0-5.1,2.8-9.7,7.3-12.1l1.9-1l-0.4-2.1c-0.1-0.8-0.2-1.6-0.2-2.3c0-7.6,6.2-13.7,13.7-13.7c0.9,0,1.9,0.1,2.8,0.3l3.1,0.6l0.4-3.2
	c0.9-6.7,6.8-11.8,13.6-11.8c1.6,0,3.1,0.3,4.6,0.8l2.7,1l1.1-2.7C98.8,21.1,103.8,17.7,109.4,17.7 M109.4,14.7
	c-7,0-13,4.3-15.5,10.4c-1.8-0.6-3.7-1-5.7-1c-8.5,0-15.4,6.3-16.5,14.4c-1.1-0.2-2.2-0.3-3.4-0.3c-9.2,0-16.7,7.5-16.7,16.7
	c0,1,0.1,1.9,0.3,2.8c-5.3,2.8-8.9,8.4-8.9,14.8c0,9.2,7.5,16.7,16.7,16.7c1.3,0,2.6-0.2,3.8-0.5c1.5,5.6,7.4,9.8,14.5,9.8
	c3.3,0,6.4-0.9,8.9-2.5c4.1,3.8,9.7,6.4,16.2,7.2c0.2,0.6,0.7,0.8,1.2,0.8s0.9-0.2,1.1-0.6c0.5,0,0.9,0,1.4,0c1.6,0,3.3-0.1,4.8-0.4
	c0,1.2,0,2.3,0,3.5c0,0.8,0.6,1.2,1.3,1.2c0.6,0,1.2-0.4,1.2-1.2c0-1.3,0-2.7,0-4c4.6-1.1,8.8-3.2,12-6c2.4,1.2,5.2,2,8.2,2
	c7.5,0,13.7-4.4,15.1-10.3c1.7,0.6,3.5,0.9,5.5,0.9c9.2,0,16.7-7.5,16.7-16.7c0-7-4.3-12.9-10.3-15.4c0.1-0.7,0.2-1.4,0.2-2.2
	c0-8.9-7-16.1-15.7-16.7C144.9,29.7,137.7,23,129,23c-1.7,0-3.3,0.3-4.8,0.7C121.4,18.4,115.8,14.7,109.4,14.7L109.4,14.7z"/>
<g>
	<path class="st1" d="M2.5,128.3c9.5,49.5,53.1,87,105.4,87s95.9-37.4,105.4-87H2.5z"/>
</g>
<path class="st1" d="M107.9,8.6c54.8,0,99.3,44.6,99.3,99.3s-44.6,99.3-99.3,99.3S8.5,162.7,8.5,107.9S53.1,8.6,107.9,8.6
	 M107.9,0.6C48.6,0.6,0.5,48.6,0.5,107.9s48,107.3,107.3,107.3s107.3-48,107.3-107.3S167.1,0.6,107.9,0.6L107.9,0.6z"/>
<g class="st2">
	<path class="st0" d="M73.5,176.7l-4.6-24.3h4.3l2.9,16.8l2.7-16.8h4.5l-4.6,24.3H73.5z"/>
	<path class="st0" d="M85.8,176.7v-24.3h10.6v3.4h-5.6v6.5h4.4v3.4h-4.4v7.6h5.7v3.4H85.8z"/>
	<path class="st0" d="M105.1,177c-1.6,0-2.9-0.3-3.9-1c-1-0.7-1.6-1.7-2.1-2.9c-0.4-1.3-0.6-2.7-0.6-4.4v-8.1c0-1.7,0.2-3.2,0.6-4.5
		s1.2-2.2,2.2-2.9c1-0.7,2.5-1,4.3-1c1.7,0,3.1,0.3,4.1,0.9c1,0.6,1.7,1.4,2.2,2.5c0.4,1.1,0.7,2.3,0.7,3.8v1.4h-4.8v-1.7
		c0-0.6,0-1.2-0.1-1.7c-0.1-0.5-0.3-0.9-0.6-1.2c-0.3-0.3-0.8-0.4-1.4-0.4c-0.7,0-1.1,0.2-1.4,0.5c-0.3,0.3-0.5,0.8-0.6,1.3
		c-0.1,0.5-0.1,1.1-0.1,1.7v10.8c0,0.7,0.1,1.3,0.2,1.8s0.3,1,0.7,1.3c0.3,0.3,0.8,0.5,1.4,0.5c0.6,0,1.1-0.2,1.4-0.5
		c0.3-0.3,0.6-0.8,0.7-1.3c0.1-0.5,0.2-1.2,0.2-1.9v-2.6h-2.4v-3h6.8v12.5h-3.2l-0.3-2.2c-0.3,0.7-0.8,1.4-1.4,1.8
		C107,176.8,106.2,177,105.1,177z"/>
	<path class="st0" d="M114.9,176.7l4.7-24.3h5.5l4.7,24.3h-4.6l-0.9-5.3h-3.8l-0.9,5.3H114.9z M120.9,168.3h2.9l-1.5-9.8
		L120.9,168.3z"/>
	<path class="st0" d="M132.2,176.7v-24.3h3.4L141,165v-12.7h4.1v24.3h-3.3l-5.4-13.4v13.4H132.2z"/>
</g>
<g>
	<path class="st0" d="M93.6,122.3l0.8-1.5c0.1-0.1,5.8-11.2,1.6-19.8c-2.5-5-9.2-8-14.5-9.6l-2.9-0.9l2.8-1c2-0.7,3.7-1.9,5-3.5
		l0.7-0.8l0.8,0.7c4.2,4.1,9.5,6.7,15.2,7.5l0.9,0.1v9.4c0,0.1,0,0.1,0,0.1s0.1,0.1,0.2,0.1c0.2,0,0.2-0.1,0.2-0.2v-9.3l1.1,0.1
		c0.5,0,1.1,0.1,1.6,0.1c1.4,0,2.9-0.1,4.3-0.3l1.2-0.2v13.4c0,0.1,0,0.1,0,0.1s0.1,0.1,0.2,0.1c0.2,0,0.2-0.1,0.2-0.2V93.1l0.8-0.2
		c4.6-1.1,8.9-3.5,12.4-6.8l0.8-0.7l0.7,0.8c1,1.3,2.4,2.3,3.9,2.9l1.9,0.8l-1.8,1c-7.8,4.2-12.5,8.1-12.8,10.6
		c-0.7,5.9,5.7,19.3,5.8,19.4l0.7,1.4C125.4,122.3,93.6,122.3,93.6,122.3z"/>
	<path class="st1" d="M87.2,86.7c4.2,4.1,9.7,6.9,15.8,7.8c0,2.8,0,5.7,0,8.5c0,0.8,0.6,1.2,1.3,1.2c0.6,0,1.2-0.4,1.2-1.2
		c0-2.8,0-5.5,0-8.3c0.6,0,1.1,0.1,1.7,0.1c1.5,0,3-0.1,4.4-0.3c0,4.1,0,8.2,0,12.3c0,0.8,0.6,1.2,1.3,1.2c0.6,0,1.2-0.4,1.2-1.2
		c0-4.3,0-8.5,0-12.8c4.9-1.2,9.3-3.7,12.9-7.1c1.1,1.4,2.6,2.5,4.3,3.2c-5.7,3.1-12.8,7.6-13.3,11.4c-0.8,6.3,5.9,19.9,5.9,19.9
		H95.2c0,0,6.1-11.5,1.6-20.7c-2.6-5.4-9.7-8.5-15.1-10.1C83.9,89.7,85.7,88.4,87.2,86.7 M87,83.7l-1.4,1.6
		c-1.2,1.5-2.8,2.6-4.6,3.2l-5.7,2l5.8,1.8c5.1,1.5,11.6,4.4,13.9,9.1c4,8.2-1.5,18.8-1.5,18.9l-1.5,2.9h3.3h28.6h3.2l-1.4-2.9
		c-1.8-3.7-6.3-14.2-5.7-18.8c0.2-1.7,3.5-5.1,12.3-9.9l3.7-2l-3.9-1.6c-1.4-0.6-2.6-1.5-3.5-2.6l-1.4-1.7l-1.6,1.5
		c-3.4,3.2-7.5,5.5-12,6.6l-1.1,0.3l-1.2,0.2c-1.4,0.2-2.8,0.3-4.1,0.3c-0.5,0-1,0-1.6-0.1l-1.2-0.1l-1.1-0.2
		c-5.6-0.8-10.6-3.3-14.7-7.2L87,83.7L87,83.7z"/>
</g>
<g>
	<g>
		<path class="st1" d="M73,92.8c9.6-0.7,15.6-6.4,20.5-14.4c0.8-1.4-1.3-2.6-2.2-1.3C87,84.3,81.6,89.7,73,90.3
			C71.4,90.3,71.4,92.8,73,92.8L73,92.8z"/>
	</g>
</g>
<g>
	<g>
		<path class="st1" d="M138.3,90.1c-6.9-0.8-13.1-8.5-15-14.7c-0.4-1.5-2.9-1-2.4,0.6c2.2,7.5,9.2,15.6,17.4,16.6
			C139.8,92.8,139.8,90.2,138.3,90.1L138.3,90.1z"/>
	</g>
</g>
<g>
	<g>
		<path class="st1" d="M71.6,60.3c1.9-5.9,7.4-5.7,12-2.8c0.7,0.4,1.7,0,1.8-0.7c0.8-3.8,4.8-2.7,7.4-4.4c1.8-1.1,3.1-2.4,5.2-3
			c5.2-1.5,9.3,1.8,12.3,5.7c0.4,0.6,1.4,0.9,2,0.3c2.5-3,6.4-5.7,10.2-3.1c1.3,0.9,2.6-1.2,1.3-2.2c-4.7-3.3-9.9-0.5-13.3,3.4
			c0.7,0.1,1.3,0.2,2,0.3c-5.1-6.7-12.4-9.8-19.8-4.5c-0.6,0.5-1.4,1.5-2.1,1.8c-0.6,0.2-2.3-0.3-3.4,0.2c-2.1,0.8-3.7,2.6-4.1,4.8
			c0.6-0.2,1.2-0.5,1.8-0.7c-6.1-3.9-13.2-3.3-15.7,4.2C68.7,61.2,71.1,61.9,71.6,60.3L71.6,60.3z"/>
	</g>
</g>
<g>
	<g>
		<path class="st1" d="M131.3,59.9c2-0.2,4.2,0.1,6.1,0.8c4.9,1.8,6,6.3,5.2,11.1c-0.3,1.6,2.1,2.2,2.4,0.7c0.9-5.3,0-10.8-5.2-13.5
			c-2.5-1.3-5.6-1.8-8.5-1.6C129.7,57.5,129.6,60,131.3,59.9L131.3,59.9z"/>
	</g>
</g>
</svg>
