<?xml version="1.0" encoding="utf-8"?>
<!-- Generator: Adobe Illustrator 22.0.0, SVG Export Plug-In . SVG Version: 6.00 Build 0)  -->
<svg version="1.1" id="Layer_1" xmlns="http://www.w3.org/2000/svg" xmlns:xlink="http://www.w3.org/1999/xlink" x="0px" y="0px"
	 viewBox="0 0 216 216" style="enable-background:new 0 0 216 216;" xml:space="preserve">
<style type="text/css">
	.st0{fill:#FFFFFF;}
	.st1{fill:#053F20;}
	.st2{enable-background:new    ;}
</style>
<circle class="st0" cx="107.9" cy="107.9" r="107.3"/>
<g>
	<path class="st1" d="M107.9,8.6c54.8,0,99.3,44.6,99.3,99.3s-44.6,99.3-99.3,99.3S8.5,162.7,8.5,107.9S53.1,8.6,107.9,8.6
		 M107.9,0.6C48.6,0.6,0.5,48.6,0.5,107.9s48,107.3,107.3,107.3s107.3-48,107.3-107.3S167.1,0.6,107.9,0.6L107.9,0.6z"/>
	<path class="st1" d="M120,87.6c4.5-4.7,9.6-8.4,15.1-11.1c1.6-8.7,5.6-16.8,11.8-24.5c6.2-7.6,12.9-13.6,19.9-18
		c-8.4,0.3-16.4,2.2-24,5.9s-14,8.6-19.4,14.7C118,60.8,114,68,111.2,76.3c-2.8,8.3-3.6,17.3-2.5,26.8
		C111.8,97.6,115.5,92.4,120,87.6z"/>
	<path class="st1" d="M85.9,69.4c0,1.1-0.1,2.6-0.3,4.4c-0.2,1.8-0.5,3.5-0.9,5c1.6,1,3.7,2.5,6,4.3c2.4,1.9,4.6,3.8,6.6,5.7
		c0.5-4.7,1.5-9.4,3.1-14.1s3.5-9.1,5.8-13.1c-2.8-9.8-7.6-18.5-14.4-26.2C85,27.8,77.2,22.2,68.4,18.7c5.5,7.1,9.8,14.9,12.8,23.4
		C84.3,50.8,85.9,59.8,85.9,69.4z"/>
	<path class="st1" d="M78.3,128.3H7.2l4.7,16.1l12,23.1l22.9,27.6l20,10.6l26.4,7.8l16.3,1.2l19.3-3.3l28.3-9.2l18.2-13.7l15.1-18.6
		l13-17.7l5.4-18.4l0.6-5.5h-70.6c2.1-11.2,7.6-21.2,16.2-29.9c8.7-8.8,18.4-14.5,29.1-17.3c-2.5-0.6-5-1.1-7.5-1.4s-5-0.5-7.7-0.5
		c-11.1,0-21.7,3-31.7,9.1c-10.1,6-17.6,14.6-22.7,25.7c1.5,3.9,2.8,7.8,3.8,11.8c1,3.9,1.5,8.5,1.5,13.7h-11.3
		c0-16.8-5.9-31-17.6-42.7S64.9,79.2,48,79.2c-2.6,0-5.2,0.2-7.7,0.5s-4.9,0.8-7.5,1.4c10.7,2.8,20.3,8.5,28.8,17.1
		S75.8,116.9,78.3,128.3z"/>
</g>
<g class="st2">
	<path class="st0" d="M39.2,176.7l-4.6-24.3h4.3l2.9,16.8l2.7-16.8H49l-4.6,24.3H39.2z"/>
	<path class="st0" d="M51.4,176.7v-24.3H62v3.4h-5.6v6.5h4.4v3.4h-4.4v7.6h5.7v3.4H51.4z"/>
	<path class="st0" d="M70.8,177c-1.6,0-2.9-0.3-3.9-1c-1-0.7-1.6-1.7-2.1-2.9c-0.4-1.3-0.6-2.7-0.6-4.4v-8.1c0-1.7,0.2-3.2,0.6-4.5
		s1.2-2.2,2.2-2.9c1-0.7,2.5-1,4.3-1c1.7,0,3.1,0.3,4.1,0.9c1,0.6,1.7,1.4,2.2,2.5c0.4,1.1,0.7,2.3,0.7,3.8v1.4h-4.8v-1.7
		c0-0.6,0-1.2-0.1-1.7c-0.1-0.5-0.3-0.9-0.6-1.2c-0.3-0.3-0.8-0.4-1.4-0.4c-0.7,0-1.1,0.2-1.4,0.5c-0.3,0.3-0.5,0.8-0.6,1.3
		c-0.1,0.5-0.1,1.1-0.1,1.7v10.8c0,0.7,0.1,1.3,0.2,1.8s0.3,1,0.7,1.3c0.3,0.3,0.8,0.5,1.4,0.5c0.6,0,1.1-0.2,1.4-0.5
		c0.3-0.3,0.6-0.8,0.7-1.3c0.1-0.5,0.2-1.2,0.2-1.9v-2.6h-2.4v-3h6.8v12.5h-3.2l-0.3-2.2c-0.3,0.7-0.8,1.4-1.4,1.8
		C72.7,176.8,71.9,177,70.8,177z"/>
	<path class="st0" d="M81.7,176.7v-24.3h10.6v3.4h-5.6v6.5H91v3.4h-4.4v7.6h5.7v3.4H81.7z"/>
	<path class="st0" d="M97.2,176.7V156h-3.8v-3.7h12.4v3.7h-3.7v20.6H97.2z"/>
	<path class="st0" d="M106,176.7l4.7-24.3h5.5l4.7,24.3h-4.6l-0.9-5.3h-3.8l-0.9,5.3H106z M112,168.3h2.9l-1.5-9.8L112,168.3z"/>
	<path class="st0" d="M123.3,176.7v-24.3h6.3c1.6,0,3,0.2,4.2,0.6s2.1,1,2.7,2c0.6,0.9,0.9,2.2,0.9,3.9c0,1-0.1,1.9-0.3,2.7
		c-0.2,0.8-0.5,1.4-0.9,2c-0.4,0.6-1,1-1.8,1.4l3.4,11.8h-5.1l-2.8-11h-1.7v11H123.3z M128.2,162.7h1.4c0.8,0,1.4-0.1,1.9-0.4
		s0.8-0.7,1-1.2c0.2-0.5,0.3-1.2,0.3-2c0-1.1-0.2-2-0.6-2.6c-0.4-0.6-1.2-0.9-2.3-0.9h-1.7V162.7z"/>
	<path class="st0" d="M140.8,176.7v-24.3h4.9v24.3H140.8z"/>
	<path class="st0" d="M148.3,176.7l4.7-24.3h5.5l4.7,24.3h-4.6l-0.9-5.3h-3.8l-0.9,5.3H148.3z M154.3,168.3h2.9l-1.5-9.8
		L154.3,168.3z"/>
	<path class="st0" d="M165.6,176.7v-24.3h3.5l5.4,12.7v-12.7h4.1v24.3h-3.3l-5.4-13.4v13.4H165.6z"/>
</g>
</svg>
