<?xml version="1.0" encoding="utf-8"?>
<!-- Generator: Adobe Illustrator 22.0.0, SVG Export Plug-In . SVG Version: 6.00 Build 0)  -->
<svg version="1.1" id="Layer_1" xmlns="http://www.w3.org/2000/svg" xmlns:xlink="http://www.w3.org/1999/xlink" x="0px" y="0px"
	 viewBox="0 0 216 216" style="enable-background:new 0 0 216 216;" xml:space="preserve">
<style type="text/css">
	.st0{fill:#FFFFFF;}
	.st1{fill:#053F20;}
</style>
<circle class="st0" cx="107.9" cy="107.9" r="107.3"/>
<path class="st1" d="M107.9,8.6c54.8,0,99.3,44.6,99.3,99.3s-44.6,99.3-99.3,99.3S8.5,162.7,8.5,107.9S53.1,8.6,107.9,8.6
	 M107.9,0.6C48.6,0.6,0.5,48.6,0.5,107.9s48,107.3,107.3,107.3s107.3-48,107.3-107.3S167.1,0.6,107.9,0.6L107.9,0.6z"/>
<path class="st1" d="M123.1,114.4c5.5-5.7,11.7-10.3,18.5-13.6c2-10.6,6.8-20.5,14.4-29.9c7.6-9.3,15.8-16.6,24.3-22
	c-10.3,0.4-20,2.7-29.3,7.2s-17.1,10.5-23.7,18c-6.6,7.6-11.5,16.4-14.9,26.5s-4.4,21.1-3.1,32.8C113,126.6,117.6,120.2,123.1,114.4
	z"/>
<path class="st1" d="M81.4,92.1c0,1.3-0.1,3.2-0.4,5.4c-0.2,2.2-0.6,4.3-1.1,6.1c2,1.2,4.5,3.1,7.3,5.3c2.9,2.3,5.6,4.6,8.1,7
	c0.6-5.7,1.8-11.5,3.8-17.2c2-5.7,4.3-11.1,7.1-16c-3.4-12-9.3-22.6-17.6-32C80.3,41.3,70.8,34.4,60,30.1c6.7,8.7,12,18.2,15.6,28.6
	C79.4,69.4,81.4,80.4,81.4,92.1z"/>
<g>
	<path class="st1" d="M72.1,164.1H21l3.3,6.6L49,193l31.7,15l30.3,4.7l29.3-6.3L173,191l19.7-24l1.2-2.9H146
		c2.6-13.7,9.3-25.9,19.8-36.5c10.6-10.8,22.5-17.7,35.6-21.1c-3.1-0.7-6.1-1.3-9.2-1.7c-3.1-0.4-6.1-0.6-9.4-0.6
		c-13.6,0-26.5,3.7-38.7,11.1c-12.3,7.3-21.5,17.8-27.7,31.4c1.8,4.8,3.4,9.5,4.6,14.4c1.2,4.8,1.8,10.4,1.8,16.7H109
		c0-20.5-7.2-37.9-21.5-52.2c-14.3-14.3-31.8-21.5-52.4-21.5c-3.2,0-6.4,0.2-9.4,0.6c-3.1,0.4-6,1-9.2,1.7
		c13.1,3.4,24.8,10.4,35.2,20.9C62.1,137.8,69,150.2,72.1,164.1z"/>
</g>
</svg>
