<?xml version="1.0" encoding="utf-8"?>
<!-- Generator: Adobe Illustrator 22.0.0, SVG Export Plug-In . SVG Version: 6.00 Build 0)  -->
<svg version="1.1" id="Layer_1" xmlns="http://www.w3.org/2000/svg" xmlns:xlink="http://www.w3.org/1999/xlink" x="0px" y="0px"
	 viewBox="0 0 216 216" style="enable-background:new 0 0 216 216;" xml:space="preserve">
<rect x="59.6" y="8.6" width="8.8" height="200.8"/>
<path d="M46.7,23.9c-2.3,0-4.4,1.1-5.8,2.8H16.7c-1.5,0-2.8,1.2-2.8,2.8V33c0,1.5,1.2,2.8,2.8,2.8h24.3c1.3,1.7,3.4,2.8,5.8,2.8
	c4,0,7.3-3.3,7.3-7.3S50.7,23.9,46.7,23.9z"/>
<path d="M46.7,62c-2.3,0-4.4,1.1-5.8,2.8H16.7c-1.5,0-2.8,1.2-2.8,2.8v3.5c0,1.5,1.2,2.8,2.8,2.8h24.3c1.3,1.7,3.4,2.8,5.8,2.8
	c4,0,7.3-3.3,7.3-7.3C54,65.3,50.7,62,46.7,62z"/>
<path d="M46.7,100.1c-2.3,0-4.4,1.1-5.8,2.8H16.7c-1.5,0-2.8,1.2-2.8,2.8v3.5c0,1.5,1.2,2.8,2.8,2.8h24.3c1.3,1.7,3.4,2.8,5.8,2.8
	c4,0,7.3-3.3,7.3-7.3S50.7,100.1,46.7,100.1z"/>
<path d="M46.7,138.2c-2.3,0-4.4,1.1-5.8,2.8H16.7c-1.5,0-2.8,1.2-2.8,2.8v3.5c0,1.5,1.2,2.8,2.8,2.8h24.3c1.3,1.7,3.4,2.8,5.8,2.8
	c4,0,7.3-3.3,7.3-7.3S50.7,138.2,46.7,138.2z"/>
<path d="M46.7,176.3c-2.3,0-4.4,1.1-5.8,2.8H16.7c-1.5,0-2.8,1.2-2.8,2.8v3.5c0,1.5,1.2,2.8,2.8,2.8h24.3c1.3,1.7,3.4,2.8,5.8,2.8
	c4,0,7.3-3.3,7.3-7.3C54,179.6,50.7,176.3,46.7,176.3z"/>
<rect x="26.1" y="38.3" width="8.8" height="24"/>
<rect x="26.1" y="76.4" width="8.8" height="24"/>
<rect x="26.1" y="114.5" width="8.8" height="24"/>
<rect x="26.1" y="152.6" width="8.8" height="24"/>
<path d="M111.2,49.1c19.8,0,39.6,0,59.4,0c3.1,0,3.1-4.8,0-4.8c-19.8,0-39.6,0-59.4,0C108.1,44.3,108.1,49.1,111.2,49.1L111.2,49.1z
	"/>
<g>
	<path d="M82.5,49.5c2.2,1.7,4.5,3.4,6.7,5.1c0.3,0.2,0.6,0.5,1,0.7c0.5,0.4,1.5,0.5,2.1,0.3c0.7-0.2,1.2-0.6,1.6-1.3
		c1.5-2.1,2.9-4.1,4.4-6.2c2.3-3.3,4.6-6.6,6.9-9.9c0.5-0.7,1.1-1.5,1.6-2.2c0.4-0.6,0.4-1.5,0.3-2.1c-0.2-0.6-0.7-1.3-1.3-1.6
		c-1.4-0.7-2.8-0.3-3.7,1c-1.5,2.1-2.9,4.1-4.4,6.2c-2.3,3.3-6.9,9.9-6.9,9.9s-2.3-2.1-4.6-3.8c-0.3-0.2-0.6-0.5-1-0.7
		c-0.5-0.4-1.5-0.4-2.1-0.3c-0.6,0.2-1.3,0.7-1.6,1.3c-0.3,0.6-0.5,1.4-0.3,2.1C81.5,48.6,81.9,49,82.5,49.5L82.5,49.5z"/>
</g>
<g>
	<polygon points="88.5,55.5 84.3,52.4 84.3,55.8 88.8,55.8 	"/>
	<path d="M100,47.9v5.4h-3.8L95,55c-0.2,0.3-0.5,0.6-0.7,0.8h8.3V44.2L100,47.9z"/>
	<path d="M86,43.8l0.5,0.4l0.4,0.3v-4.2h8.8l1-1.5l0.8-1.1H84.3v5.6C84.8,43.2,85.5,43.3,86,43.8z"/>
</g>
<path d="M111.2,87.2c19.8,0,39.6,0,59.4,0c3.1,0,3.1-4.8,0-4.8c-19.8,0-39.6,0-59.4,0C108.1,82.4,108.1,87.2,111.2,87.2L111.2,87.2z
	"/>
<g>
	<path d="M82.5,87.6c2.2,1.7,4.5,3.4,6.7,5.1c0.3,0.2,0.6,0.5,1,0.7c0.5,0.4,1.5,0.5,2.1,0.3c0.7-0.2,1.2-0.6,1.6-1.3
		c1.5-2.1,2.9-4.1,4.4-6.2c2.3-3.3,4.6-6.6,6.9-9.9c0.5-0.7,1.1-1.5,1.6-2.2c0.4-0.6,0.4-1.5,0.3-2.1c-0.2-0.6-0.7-1.3-1.3-1.6
		c-1.4-0.7-2.8-0.3-3.7,1c-1.5,2.1-2.9,4.1-4.4,6.2c-2.3,3.3-6.9,9.9-6.9,9.9s-2.3-2.1-4.6-3.8c-0.3-0.2-0.6-0.5-1-0.7
		c-0.5-0.4-1.5-0.4-2.1-0.3c-0.6,0.2-1.3,0.7-1.6,1.3c-0.3,0.6-0.5,1.4-0.3,2.1C81.5,86.7,81.9,87.1,82.5,87.6L82.5,87.6z"/>
</g>
<g>
	<polygon points="88.5,93.7 84.3,90.5 84.3,93.9 88.8,93.9 	"/>
	<path d="M100,86v5.4h-3.8L95,93.1c-0.2,0.3-0.5,0.6-0.7,0.8h8.3V82.4L100,86z"/>
	<path d="M86,81.9l0.5,0.4l0.4,0.3v-4.2h8.8l1-1.5l0.8-1.1H84.3v5.6C84.8,81.3,85.5,81.5,86,81.9z"/>
</g>
<g>
	<path d="M82.5,125.7c2.2,1.7,4.5,3.4,6.7,5.1c0.3,0.2,0.6,0.5,1,0.7c0.5,0.4,1.5,0.5,2.1,0.3c0.7-0.2,1.2-0.6,1.6-1.3
		c1.5-2.1,2.9-4.1,4.4-6.2c2.3-3.3,4.6-6.6,6.9-9.9c0.5-0.7,1.1-1.5,1.6-2.2c0.4-0.6,0.4-1.5,0.3-2.1c-0.2-0.6-0.7-1.3-1.3-1.6
		c-1.4-0.7-2.8-0.3-3.7,1c-1.5,2.1-2.9,4.1-4.4,6.2c-2.3,3.3-6.9,9.9-6.9,9.9s-2.3-2.1-4.6-3.8c-0.3-0.2-0.6-0.5-1-0.7
		c-0.5-0.4-1.5-0.4-2.1-0.3c-0.6,0.2-1.3,0.7-1.6,1.3c-0.3,0.6-0.5,1.4-0.3,2.1C81.5,124.8,81.9,125.3,82.5,125.7L82.5,125.7z"/>
</g>
<g>
	<polygon points="88.5,131.8 84.3,128.7 84.3,132 88.8,132 	"/>
	<path d="M100,124.1v5.4h-3.8l-1.2,1.7c-0.2,0.3-0.5,0.6-0.7,0.8h8.3v-11.6L100,124.1z"/>
	<path d="M86,120l0.5,0.4l0.4,0.3v-4.2h8.8l1-1.5l0.8-1.1H84.3v5.6C84.8,119.4,85.5,119.6,86,120z"/>
</g>
<g>
	<path d="M180,142.3c-4.7-1.3-9.3-2.6-14-3.9c0.1-0.3,0.1-0.6,0.2-0.9c9.7-34.1,19.4-68.2,29-102.4c0.2-0.6,0.4-0.9,1-1
		c2.7-0.8,5.5-1.3,8.3-0.2c2.1,0.8,3.7,2.3,4.8,4.2c0.2,0.2,0.1,0.7,0,1c-3.4,12.1-6.8,24.1-10.3,36.2c-6.2,22-12.5,43.9-18.7,65.9
		C180.2,141.6,180.1,141.9,180,142.3z"/>
	<path d="M179.4,143.1c-2.8,9.9-5.6,19.7-8.4,29.5c-4.4-1.2-8.8-2.5-13.3-3.7c2.8-9.9,5.6-19.7,8.4-29.6
		C170.5,140.5,174.9,141.8,179.4,143.1z"/>
	<path d="M158.8,169.7c3.7,1.1,7.4,2.1,11.2,3.2c-0.5,1.7-0.9,3.3-1.4,5c-0.6,2.1-1.2,4.2-1.8,6.3c-0.1,0.4-0.3,0.8-0.6,1
		c-2.3,2.4-4.6,4.9-6.9,7.3c-0.2,0.2-0.6,0.4-0.8,0.3c-0.2-0.1-0.5-0.4-0.6-0.7c-0.8-3.4-1.6-6.8-2.4-10.2c-0.1-0.3-0.1-0.6,0-0.9
		c1-3.6,2.1-7.3,3.1-10.9C158.6,170,158.7,169.9,158.8,169.7z"/>
</g>
<g>
	<path d="M34.9,20.7c0-2.6,1-5.1,2.9-7c1.9-1.9,4.4-2.9,7-2.9h129.6c2.6,0,5.1,1,7,2.9c1.9,1.9,2.9,4.4,2.9,7v43.1
		c2.8-9.8,5.6-19.6,8.3-29.4c0.1-0.4,0.3-0.7,0.5-1.1V20.7c0-10.3-8.4-18.7-18.7-18.7H44.8c-10.3,0-18.7,8.4-18.7,18.7v3.4h8.8V20.7
		z"/>
	<path d="M184.4,136.1v58.8c0,2.6-1,5.1-2.9,7c-1.9,1.9-4.4,2.9-7,2.9H44.8c-2.6,0-5.1-1-7-2.9c-1.9-1.9-2.9-4.4-2.9-7v-4.2h-8.8
		v4.2c0,10.3,8.4,18.7,18.7,18.7h129.6c10.3,0,18.7-8.4,18.7-18.7v-89.8L184.4,136.1z"/>
</g>
<path d="M100,154.5v13H86.8v-13H100 M102.5,152H84.3v18.1h18.2V152L102.5,152z"/>
<path d="M168.3,120.6c-19,0-38.1,0-57.1,0c-3.1,0-3.1,4.8,0,4.8c18.6,0,37.2,0,55.8,0C167.4,123.7,167.8,122.1,168.3,120.6z"/>
<path d="M157.9,158.7c-15.6,0-31.2,0-46.7,0c-3.1,0-3.1,4.8,0,4.8c15.1,0,30.3,0,45.4,0L157.9,158.7z"/>
</svg>
