<?xml version="1.0" encoding="utf-8"?>
<!-- Generator: Adobe Illustrator 22.0.0, SVG Export Plug-In . SVG Version: 6.00 Build 0)  -->
<svg version="1.1" id="Layer_1" xmlns="http://www.w3.org/2000/svg" xmlns:xlink="http://www.w3.org/1999/xlink" x="0px" y="0px"
	 viewBox="0 0 216 187.5" style="enable-background:new 0 0 216 187.5;" xml:space="preserve">
<style type="text/css">
	.st0{fill:#D7AF78;}
	.st1{fill:#F18326;}
	.st2{fill:#FFFEFE;}
	.st3{fill:#352115;}
</style>
<g>
	<path class="st0" d="M193.8,81.6c0,0.1,0,0.2,0,0.3C193.9,81.8,193.9,81.7,193.8,81.6z"/>
	<path d="M89.2,156.9C89.2,157,89.3,157,89.2,156.9C89.3,157,89.3,157,89.2,156.9C89.2,157,89.2,157,89.2,156.9
		C89.2,156.9,89.2,156.9,89.2,156.9z"/>
	<path d="M30.6,90.5c0.1,0,0.1,0.1,0.2,0.1C30.8,90.6,30.7,90.6,30.6,90.5z"/>
	<path d="M113,119.3C113,119.4,113,119.4,113,119.3C113,119.4,113,119.4,113,119.3C113,119.4,113,119.4,113,119.3
		C113,119.3,113,119.3,113,119.3z"/>
	<path d="M32.2,131.5c0.1,0.4,0.3,0.7,0.5,1.1c1.2,2.5,2.6,4.9,4.2,7.2c2,2.9,4.5,5.5,7.3,7.7c1.7,1.3,3.3,2.5,5.1,3.7
		c1.6,1,3.2,2,4.9,2.7c0.4,0.2,0.7,0.4,1,0.6c1,0.7,2.1,1.3,3.2,1.8c0.2,0.1,0.3,0.1,0.5,0.3c-1.6-0.4-3.2-1-4.7-1.6
		c-3-1.3-5.7-3.1-8.4-5c-1.8-1.3-3.5-2.6-5.1-4.2c-2.2-2.1-4-4.4-5.7-6.9c-1.3-2-2.4-4.2-3.4-6.3c-0.5-1-1-2.1-1.4-3.2
		c-0.5-1.3-1-2.6-1.4-3.9c-0.8-2.3-1.2-4.7-1-7.1c0-0.8,0.1-1.6,0.2-2.4c0-0.2,0.2-0.2,0.4-0.3c0,0.6,0,1.1,0,1.6
		c0,0.9,0.1,1.8,0.2,2.7c0.2,1.5,0.4,2.9,0.8,4.4c0.4,1.2,0.8,2.4,1.2,3.6C31.1,129.1,31.6,130.3,32.2,131.5z"/>
	<path d="M50.8,140.2c-0.2,0-0.3-0.3-0.3-0.4c-0.4-0.9-0.9-1.9-1.3-2.8c-0.5-1.1-0.8-2.4-0.9-3.6c-0.3-3.5-0.4-7-0.1-10.5
		c0.1-0.7,0.2-1.4,0.3-2.1c0.1-0.7,0.2-1.4,0.4-2.1c0.4-1.4,0.8-2.7,1.3-4c0.2-0.6,0.6-1,1-1.5c-0.2,1.1-0.3,2.2-0.7,3.3
		c-0.7,1.9-1.1,4-1.3,6c-0.4,3.6-0.3,7.1,0,10.7c0.2,1.9,0.7,3.8,1.2,5.7C50.6,139.2,50.8,139.7,50.8,140.2z"/>
	<path d="M40.4,110.4c0,0.3-0.1,0.6-0.2,0.8c-0.2,0.9-0.4,1.8-0.5,2.7c-0.1,0.8-0.4,1.5-0.6,2.3c-0.8,3.2-1.1,6.4-0.9,9.6
		c0.1,0.8,0.2,1.6,0.3,2.4c0.1,0.6,0.1,1.2,0.2,1.8c0.1,1,0.3,1.9,0.6,2.8c0,0.1,0.1,0.2-0.1,0.3c-0.2-0.1-0.4-0.4-0.5-0.6
		c-0.7-1.9-1.2-3.9-1.4-6c-0.1-1.2-0.2-2.4-0.1-3.7c0.1-2.2,0.4-4.4,0.8-6.5c0.4-2,1.2-3.8,1.9-5.7
		C40.1,110.6,40.2,110.5,40.4,110.4z"/>
	<path d="M63.3,147.5c-0.1,0.1-0.2,0.1-0.2,0c-0.5-0.9-1.1-1.7-1.4-2.6c-0.2-0.6-0.3-1.4-0.4-2c-0.2-1.3-0.4-2.6-0.4-3.9
		c0-0.2,0-0.3,0-0.4c0-0.1,0-0.2,0-0.3c0.1-0.1,0-0.2,0-0.4c0-1,0-1.9,0.1-2.9c0,0,0,0,0,0l0,0c0-0.3,0.1-0.7,0.1-1c0,0,0,0,0,0
		c0.1-1.9,0.5-3.8,1.1-5.6c0-0.1,0.1-0.1,0.1-0.2c0-0.1,0.1-0.2,0.2-0.2c0.1,0,0.1,0.1,0.1,0.2c0,0.8,0,1.6-0.1,2.4
		c-0.4,2.2-0.5,4.5-0.6,6.8c-0.1,2.6,0.2,5.2,0.9,7.7C62.9,145.7,63,146.6,63.3,147.5z"/>
	<path d="M73.7,148.9c-0.6-0.6-1.1-1.3-1.4-2.1c-0.2-0.6-0.4-1.2-0.5-1.7c-0.2-0.7-0.3-1.5-0.3-2.3c0-1,0-2,0-3c0-0.2,0-0.4,0.1-0.6
		c0.1-0.1,0.1,0,0.2,0.1c0.1,1.2,0.5,2.3,0.5,3.4c0,0,0,0.1,0,0.1c0,0.1,0,0.2,0,0.2c0,0,0,0,0,0c0,0,0,0,0,0.1
		c0.1,0.9,0.4,1.8,0.6,2.8C73.2,146.9,73.4,147.9,73.7,148.9z"/>
	<polygon points="60.9,134.8 60.9,134.8 60.9,134.8 	"/>
	<path d="M61,133.8C61,133.8,61,133.8,61,133.8C61,133.8,61,133.8,61,133.8z"/>
	<path d="M72.2,142.8c0,0,0-0.1,0-0.1C72.2,142.7,72.2,142.7,72.2,142.8C72.3,142.7,72.2,142.8,72.2,142.8z"/>
	<path d="M72.3,143.1C72.3,143.1,72.3,143.1,72.3,143.1c0-0.1,0-0.1,0-0.1C72.3,143,72.3,143,72.3,143.1
		C72.3,143.1,72.3,143.1,72.3,143.1z"/>
	<path d="M101.4,112.4c0,0.1,0,0.1,0.1,0.1c0,0.1,0.1,0.1,0.1,0.2c0.3,0.3,0.5,0.7,0.6,1.1c0.3,0.7,0.7,1.4,1.1,2.1
		c0.1,0.1,0.2,0.3,0.2,0.6c-0.8-0.7-1.2-1.5-1.9-2.1c-0.5-0.6-1.1-1.2-1.6-1.8c-0.8-1-1.7-1.7-2.5-2.6c-2.7-3-5.7-5.5-9.3-7.3
		c-1.3-0.6-2.4-1.4-3.8-2c0.1-0.3,0.3-0.4,0.5-0.3c0.3,0.1,0.7,0.2,1,0.3c2.8,0.9,5.3,2.4,7.6,4.2c2.1,1.6,3.9,3.5,5.7,5.4
		C100,111,100.7,111.7,101.4,112.4z"/>
	<path d="M94.8,123.1c0.6,0.7,1,1.6,1.4,2.4c0,0.1,0.1,0.1,0.1,0.2c0,0,0,0.1,0,0.1c-0.1,0.1-0.1,0-0.2,0c-0.2-0.2-0.4-0.5-0.6-0.7
		c-0.8-0.9-1.6-1.8-2.4-2.6c-0.5-0.5-1-1-1.5-1.5c-0.8-0.8-1.6-1.5-2.6-2.1c0.2-0.1,0.4,0,0.5,0c1.4,0.4,2.6,1.3,3.7,2.3
		c0.3,0.3,0.7,0.7,1,1c0,0,0,0.1,0.1,0.1c0,0,0,0,0,0c0,0,0,0.1,0.1,0.1c0,0,0,0,0.1,0.1c0,0.1,0,0.1,0.1,0.1
		C94.6,122.8,94.7,123,94.8,123.1z"/>
	<path d="M105.9,111.7c0,0.1,0,0.2,0,0.2c-0.1,0-0.1-0.1-0.1-0.1C105.8,111.7,105.8,111.7,105.9,111.7z"/>
	<path d="M94.5,122.6c-0.1,0-0.1-0.1-0.1-0.1C94.4,122.5,94.5,122.5,94.5,122.6z"/>
	<path d="M94.3,122.4C94.2,122.4,94.2,122.4,94.3,122.4C94.2,122.4,94.3,122.4,94.3,122.4L94.3,122.4z"/>
	<path d="M94.2,122.3C94.1,122.3,94.1,122.3,94.2,122.3C94.1,122.3,94.2,122.3,94.2,122.3L94.2,122.3z"/>
	<path d="M60.8,138.1c0,0.1,0,0.2,0,0.3C60.6,138.3,60.6,138.2,60.8,138.1z"/>
	<path d="M33.3,160.5c0.1,1.1,0.2,2.3,0.3,3.4c0,0.3,0.1,0.7,0.3,1c0.7,1.6,1.4,3.2,2.5,4.7c0,0,0.1,0.1,0.1,0.1
		c0.1,0.1,0.3,0.2,0.1,0.4c-0.1,0.1-0.4,0.1-0.6-0.1c-0.4-0.4-0.7-0.8-1-1.2c-0.3-0.4-0.6-0.8-0.9-1.3c-1.1-1.7-1.6-3.5-1.5-5.5
		c0-0.9,0.2-1.8,0.3-2.6c0-0.1,0-0.1,0.1-0.2c0.1-0.1,0.1-0.3,0.3-0.2c0.1,0,0.1,0.2,0.1,0.3C33.3,159.7,33.3,160.1,33.3,160.5
		C33.3,160.5,33.3,160.5,33.3,160.5z"/>
	<path d="M27.9,150.6c-0.1,0.1-0.2,0.1-0.3,0.1c-0.6,0.1-1.2,0.3-1.8,0.4c-0.2,0.1-0.4,0.1-0.6,0.1c-1.6,0.2-3.1,0.7-4.5,1.5
		c-0.3,0.2-0.6,0.4-1,0.6c-0.1,0-0.2,0-0.3-0.1c-0.1-0.1,0-0.1,0.1-0.2c0.8-0.9,1.6-1.8,2.9-2.2c1.6-0.5,3.2-0.8,4.8-0.5
		c0.1,0,0.3,0.1,0.4,0.1C27.8,150.5,27.9,150.5,27.9,150.6z"/>
	<path d="M26.5,143.8c-0.9,0-1.7,0-2.4-0.2c-1.3-0.3-2.7-0.3-4-0.2c-0.8,0.1-1.5,0.2-2.2,0.4c-0.3,0.1-0.5,0.1-0.7-0.2
		C19.8,142,23.8,142,26.5,143.8z"/>
	<path d="M41.8,162.6c0.3,0.2,0.4,0.5,0.5,0.7c0.6,1.1,1.3,2.1,2.3,3c0.1,0.1,0.2,0.1,0.2,0.2c0.1,0.1,0.1,0.2,0,0.3
		c-0.1,0.1-0.1,0-0.2,0c-1.1-0.4-1.9-1.2-2.4-2.3C42,163.9,41.9,163.3,41.8,162.6z"/>
	<path d="M43.4,87.6c0.1-2.4,5.3-7.7,7.4-7.8c-0.2,0.4-0.7,1-1.1,1.2c-2.1,1.4-3.9,3.1-5.2,5.4C44.3,86.8,43.8,87.1,43.4,87.6z"/>
	<path d="M54.8,84.6c0,0.2-0.1,0.4-0.3,0.5c-1.1,1-2.2,2-3.2,3c-0.1,0.1-0.2,0.1-0.3,0.2c-0.1,0-0.2,0-0.3,0c-0.1-0.1,0-0.2,0-0.3
		c0.2-0.3,0.3-0.5,0.5-0.8c0.9-1,1.8-2.1,3.2-2.6C54.5,84.6,54.6,84.6,54.8,84.6z"/>
	<path d="M55.7,90.5c0-0.1,0.1-0.2,0.1-0.3c0.4-0.5,0.8-0.9,1.3-1.3c0.1,0,0.1-0.1,0.2-0.1c0.1-0.1,0.3-0.1,0.4,0
		c0.1,0.1,0,0.2-0.1,0.3c-0.3,0.5-0.7,1-1.2,1.5c-0.1,0.1-0.1,0.2-0.3,0.2C56,90.9,55.7,90.7,55.7,90.5z"/>
	<path d="M62.4,93.7c0.1,0.2,0,0.3-0.1,0.5c-0.4,0.4-0.9,0.9-1.2,1.4c-0.1,0.2-0.3,0.3-0.5,0.1c-0.2-0.1-0.2-0.3-0.1-0.5
		C61,94.4,61.6,94,62.4,93.7z"/>
	<path d="M12.3,105.1C12.2,105.1,12.3,105.1,12.3,105.1C12.3,105.1,12.3,105.1,12.3,105.1C12.3,105.1,12.3,105.1,12.3,105.1
		C12.3,105.1,12.3,105.1,12.3,105.1z"/>
	<path d="M110.6,113.8c-0.1-0.3,0-0.5,0.1-0.7c0.4-0.5,0.9-1.1,1.3-1.6c0.4-0.5,0.8-1,1-1.6c0.3-0.3,0.5-0.7,0.7-1.1
		c0.6-1,1.2-2,1.7-3.1c0.2,0,0.2,0.2,0.2,0.3c0,0.9-0.2,1.7-0.6,2.5c-0.6,1.2-1.3,2.3-2.1,3.3c-0.1,0.1-0.2,0.2-0.3,0.3
		C112,112.7,111.4,113.4,110.6,113.8z"/>
	<path d="M110.7,101.1c0.3-1.1,0.6-2.1,0.9-3.2c0-0.2,0.1-0.3,0.1-0.5c0.1-0.2,0.1-0.4,0.2-0.5c0.1-0.2,0.2-0.2,0.4,0
		c0.1,0.2,0.1,0.4,0.1,0.5c0,1.1-0.2,2.2-0.5,3.2c-0.3,0.9-0.6,1.8-0.9,2.6c-0.1,0.3-0.3,0.6-0.7,0.5c-0.1-0.1-0.3-0.1-0.2-0.3
		c0.4-0.7,0.6-1.5,0.7-2.3C110.7,101.1,110.7,101.1,110.7,101.1z"/>
	<path d="M99.2,82.9c-0.1-0.1-0.2-0.1-0.1-0.2C99.1,82.7,99.1,82.8,99.2,82.9z"/>
	<path d="M101.7,112.7c0-0.1-0.1-0.1-0.1-0.2C101.6,112.6,101.6,112.7,101.7,112.7z"/>
	<path d="M110.7,101.1c0,0,0,0.1,0,0.1C110.7,101.1,110.6,101.1,110.7,101.1C110.6,101.1,110.7,101.1,110.7,101.1z"/>
	<path d="M211,146.5c-0.6,1.1-1.4,2-2.5,2.6c-0.2,0.1-0.2,0.2-0.2,0.5c0.3,1.6-0.2,2.5-1.8,3c-1.5,0.5-3,0.7-4.4,1.2
		c-4.9,1.5-9.8,3.1-14.7,4.6c-3.9,1.2-7.9,2-12,2.3c-2.1,0.1-4.2,0-6.2-0.3c-0.7-0.1-1.1-0.1-1.3,0.8c-2.5,8.6-10.1,12-16,12.1
		c-0.2,0-0.5,0-0.7,0.2c-1.8,1.3-3.8,1.7-6,2c-4.6,0.6-9.2,0.9-13.8,1.6c-3.2,0.5-6.4,1.2-9.5,1.7c-3.3,0.5-6.7,0.8-10,0.7
		c-0.2,0-0.5-0.1-0.7,0.1c-1.4,1.4-3.1,1.7-4.9,1.9c-4.2,0.6-8.4,1.5-12.6,2.4c-7.2,1.5-14.5,1.6-21.7-0.3c-1.8-0.5-3.5-1.1-5-2.2
		c-2.6-1.9-3-5-1-7.6c1.5-2,3.6-3.3,5.7-4.6c4.9-3.1,10.2-5.5,15.4-8.1c6.2-3,12.4-6.1,18.8-8.6c1.8-0.7,3.7-1.3,5.8-1
		c0.2,0,0.4-0.1,0.5-0.2c1.3-1.3,2.9-2,4.7-2.4c3-0.7,5.8-2,8.6-3.4c2.1-1.1,4.3-1.9,6.6-2.1c0.2,0,0.3,0,0.5-0.2
		c1.5-1.5,3.4-2.1,5.3-2.7c4.3-1.5,8.7-2.6,13.3-2.6c4.7,0,9.1,1.3,12.6,4.6c0.2,0.2,0.3,0.3,0.5,0.1c2.8-2.8,6.4-4.4,10.1-5.9
		c6.2-2.5,11.5-6.5,16.4-10.9c1-0.9,2-1.8,2.9-2.7c0.6-0.6,1.2-0.9,1.9-1.3c0.4,0,0.9,0,1.3,0c0.1,0.1,0.2,0.1,0.3,0.2
		c1.6,0.7,2.1,2.2,1.2,3.8c-0.3,0.4-0.6,0.8-0.9,1.2c-1.1,1.2-2.3,2.4-3.5,3.7c-0.1,0-0.1,0-0.1,0.1c0,0,0.1,0,0.2,0
		c0.3-0.2,0.7-0.3,1-0.5c2.6-1.4,5.1-3.1,7.6-4.6c1.3-0.8,2.2-0.3,2.4,1.3c0.2,1.6-0.7,2.7-1.8,3.6c-2.4,2.2-5.1,4-8,5.6
		c-3.7,2.1-7.5,3.8-11.1,6.1c-1.2,0.8-2.4,1.5-3.5,2.5c1-0.1,2-0.2,3-0.3c5-0.9,9.9-2.3,14.5-4.4c1.8-0.8,3.7-1.5,5.7-1.3
		c1.3,0.1,2.2,0.9,2.5,2.2c0.3,1.2-0.2,2.2-1.4,2.9c-0.8,0.4-1.6,0.6-2.4,0.8c-2.3,0.6-4.6,1.1-6.8,1.9c0.9-0.1,1.7-0.2,2.6-0.4
		c3.2-0.6,6.5-1.3,9.7-1.9c1.5-0.3,2.3,0.1,2.9,1.3C211,145.6,211,146.1,211,146.5z M176,146c-0.1,0.1-0.1,0.1-0.2,0.2
		c0,0,0,0,0,0.1C175.9,146.2,175.9,146.1,176,146C176,146,176,146,176,146C176,146,176,146,176,146z M112.6,176.5
		c0.1,0.2-0.3,0.7,0.4,0.7c1.8,0,3.7-0.1,5.5-0.2c4.2-0.4,8.3-1.5,12.4-2.1c4.9-0.7,9.7-1.5,14.6-2.1c2.8-0.4,5.3-1.2,7.4-3.1
		c0.5-0.5,1-1,1.6-1.5c0,0.8-0.4,1.4-0.6,2c0.1,0,0.2,0,0.2,0c8.3-1.6,13.9-9.9,12.2-18.2c-1.4-7.2-6.9-11.8-14.2-12.2
		c-5.8-0.3-11.3,1.3-16.7,3.2c-0.2,0.1-0.5,0.1-0.6,0.4c0.9,0.3,1.7,0.6,2.4,1.5c-0.7-0.2-1.3-0.3-1.9-0.3c-3.1-0.1-5.9,0.7-8.6,2.2
		c-3.3,1.9-6.6,3.4-10.4,4.1c-0.8,0.1-1.5,0.5-2.2,0.9c-0.4,0.2-0.6,0.4-0.1,0.7c0.3,0.2,0.6,0.4,0.8,0.6c-0.1,0.1-0.1,0.1-0.2,0.2
		c-0.6-0.1-1.1-0.3-1.7-0.4c-2.4-0.5-4.7,0.1-6.9,1.1c-9.5,4.3-18.8,8.9-28,13.7c-2.9,1.5-5.6,3.1-8.2,5c-1,0.7-1.9,1.5-2.6,2.6
		c-0.9,1.4-0.7,2.8,0.6,3.9c0.9,0.8,1.9,1.3,3,1.7c3.7,1.3,7.6,1.6,11.5,1.7c3.9,0.1,7.7-0.4,11.4-1.4c4.4-1.1,8.9-2.1,13.5-2.3
		c1.6-0.1,3.1-0.7,4.4-1.8C111.9,176.9,112.2,176.6,112.6,176.5z M169,153.3c0.9-1.4,1.9-2.8,2.8-4.3c2.3-3.7,4.9-7,8.6-9.3
		c5.3-3.5,10-7.7,14.5-12.2c0.8-0.8,1.6-1.6,2.2-2.6c0.3-0.4,0.5-0.9,0.1-1.4c-0.4-0.5-1-0.5-1.5-0.3c-0.4,0.1-0.6,0.4-0.9,0.6
		c-1.1,1-2.2,2.1-3.4,3.1c-5.3,5-11.2,9.2-18,12c-2.8,1.2-5.3,2.7-7.5,4.9c-0.4,0.4-0.5,0.6-0.1,1.1c0.4,0.5,0.8,1.1,1.1,1.7
		C168,148.7,168.6,150.9,169,153.3z M175.3,149.1c0.4,0,0.6,0,0.9,0c0.2,0,0.5-0.1,0.7-0.1c2.9-0.1,5.6-0.6,8.3-1.6
		c3.3-1.1,6.5-2.5,9.9-3.5c2.9-0.9,5.8-1.6,8.7-1.8c1-0.1,1.3-0.8,1-1.7c-0.2-0.6-0.7-0.8-1.3-0.8c-1.6,0-3.1,0.5-4.6,1.1
		c-2.2,0.9-4.4,1.8-6.7,2.4c-4.2,1.2-8.5,2.3-12.9,2.4c-0.2,0-0.4,0.1-0.6,0.2C177.7,146.9,176.6,148,175.3,149.1z M185.7,153
		c-2.3,0.1-4.6,0.2-7,0.2c-0.4,0-0.8,0.1-1.3,0.1c-2.1,0.3-4.1,0.6-6.2,0.4c-0.2,0-0.3,0-0.4,0.2c-0.6,0.9-1.3,1.8-1.9,2.7
		c-0.3,0.4-0.2,0.7,0.3,0.8c1.9,0.2,3.9,0.5,5.8,0.4c3.7-0.2,7.4-0.8,11-1.8c0.9-0.2,1.7-0.5,2.6-0.7c0.8-0.2,1.6-0.5,2.5-0.7
		c-4.3,0.6-8.6,1-13,1C180.7,155,183.3,154.2,185.7,153z M176.1,145.7c0.3,0,0.4-0.2,0.5-0.3c3-2.8,6.5-4.9,10.2-6.9
		c3.1-1.6,6.3-3.1,9.3-4.9c2.5-1.5,4.8-3.2,6.9-5.2c0.5-0.5,0.7-1.1,0.7-1.8c0-0.4-0.2-0.5-0.5-0.2c-0.5,0.4-1.1,0.7-1.7,1.1
		c-3.1,1.9-6.1,3.9-9.6,5.1c-0.4,0.2-0.8,0.4-1.1,0.7c-2.8,2.6-5.6,5.1-8.8,7.2C179.8,141.9,177.8,143.5,176.1,145.7z M187.9,150
		c0.6,0,1.2,0,1.7-0.1c4.2-0.4,8.3-1.3,12.5-2c1.4-0.2,2.8-0.6,4.2-0.2c1.1,0.3,2.8-0.6,3.2-1.6c0.2-0.6,0-0.8-0.6-0.9
		c-0.5,0-0.9,0-1.4,0.1c-4.4,0.9-8.8,1.7-13.2,2.3C191.9,148,189.9,148.8,187.9,150z"/>
	<path class="st1" d="M176,146c-0.1,0.1-0.1,0.1-0.2,0.2c0,0,0-0.1,0-0.1C175.8,146.1,175.9,146.1,176,146C176,146,176,146,176,146z
		"/>
	<path class="st1" d="M176,146C176,146,176,146,176,146C176,146,176,146,176,146C176,146,176,146,176,146z"/>
	<path class="st2" d="M194,130.4c-0.1,0-0.2,0-0.2,0C193.8,130.4,193.9,130.3,194,130.4C194,130.4,194,130.4,194,130.4z"/>
	<path class="st3" d="M151.8,152.9c0,1.7-0.5,2.8-0.5,4c0,0.5-0.1,1-0.1,1.5c0,0.2,0,0.6-0.3,0.6c-0.3,0-0.2-0.4-0.2-0.6
		c-0.1-2.7-0.5-5.2-1.5-7.7c-0.5-1.1-1-2.2-1.9-3.1c-0.2-0.2-0.4-0.4-0.1-0.6c0.2-0.2,0.4,0.1,0.5,0.3c0.6,0.6,1.3,1.2,2,1.8
		C151,150.2,151.7,151.6,151.8,152.9z"/>
	<path class="st3" d="M135,167.6c-0.2-0.4,0-0.7,0-1.1c0-1.7-0.2-3.3-0.4-5c-0.1-1-0.8-1.7-1.2-2.6c-0.2-0.3-0.4-0.7-0.5-1
		c-0.1-0.1-0.1-0.2,0-0.3c0.1-0.1,0.2,0,0.3,0.1c1.8,1.6,3.7,3.8,2.7,7.1c-0.2,0.7-0.3,1.5-0.5,2.2
		C135.3,167.2,135.3,167.4,135,167.6z"/>
	<path class="st3" d="M105.5,169.4c-0.2-1.9-0.8-3.7-1.5-5.4c-0.4-1-1-1.8-1.8-2.5c-0.1-0.1-0.3-0.2-0.1-0.4c0.1-0.1,0.2,0,0.3,0
		c3.6,1.7,4.3,5.1,3.3,7.9C105.6,169.2,105.5,169.3,105.5,169.4z"/>
	<path class="st3" d="M91.1,178.3c0.2-2.3-0.2-4.3-1.9-6.1c1.2,0.2,2.7,1.8,3,3C92.5,176.4,92.1,177.6,91.1,178.3z"/>
	<path class="st3" d="M143,167.8c0.2-1.2,0.4-2.4,0.3-3.7c-0.1-1.2-0.3-2.3-0.7-3.5c1.4,1.5,2.3,3.4,1.4,5.1
		c-0.4,0.7-0.6,1.4-0.8,2.1C143.1,167.8,143.1,167.8,143,167.8z"/>
	<path class="st3" d="M120.1,173.2c0.1-2.6,0.1-4.9-0.8-7.2C121.1,166.7,121.5,170.7,120.1,173.2z"/>
	<g>
		<path d="M161.1,77.1c-0.3-1.7-0.8-3.2-1.5-4.8c-0.9-1.9-2.1-3.6-3.4-5.3c-0.9-1.2-1.7-2.5-2.6-3.7c-0.7-1-1-2.1-0.9-3.4
			c0-2.6,0-5.3,0-7.9c0-3.4-0.2-6.9-0.5-10.3c-0.2-1.9-0.3-3.9-0.5-5.8c-0.3-2.5-0.5-5-0.9-7.6c-0.4-3.2-0.8-6.3-1.2-9.5
			c-0.1-0.5,0-0.8,0.4-1.1c1.2-0.9,1.7-2.1,1.4-3.7c-0.2-1-0.4-2-0.9-3c-0.3-0.7-0.7-1.4-1-2.1c0.2-0.3,0.5-0.6,0.6-0.9
			c0.6-1.1,0.4-2.2-0.6-3.3c-5.9,0-11.8,0-17.8,0c-0.1,0.2-0.3,0.3-0.4,0.5C131,6.2,130.8,7,131.3,8c0.6,0,1.2-0.1,1.8-0.1
			c0.6,0,1.2-0.1,1.8-0.1c0.6,0,1.2,0,1.9,0c0.6,0,1.2,0,1.8,0c0.6,0,1.2,0,1.9,0.2c-0.2,0.1-0.3,0.1-0.4,0.1
			c-2.6,0.3-5.2,0.8-7.7,1.4c-0.4,0.1-0.7,0.2-0.8,0.6c-0.6,1.3-1.2,2.6-1.4,4c-0.2,1.1,0.1,2.1,0.7,3c0.3,0.4,0.7,0.6,1.2,0.6
			c1.7-0.1,3.4-0.1,5.1-0.1c0.5,0,0.9,0.1,1.4,0.1c-0.2,0.2-0.4,0.2-0.6,0.3c-1.9,0.5-3.8,1-5.6,1.7c-0.4,0.2-0.6,0.4-0.7,0.9
			c-0.4,3.2-0.8,6.3-1.2,9.5c-0.3,2.6-0.6,5.2-0.8,7.9c-0.2,2.8-0.5,5.5-0.7,8.3c-0.1,2.8-0.1,5.6-0.2,8.4c0,1.8,0,3.6-0.1,5.3
			c0,0.2,0,0.4,0,0.7c2.1-0.4,4.1-0.9,6.1-0.9c3.7-0.1,5.5-0.1,6.1,0.2c-0.1,0-0.1,0.1-0.2,0.1c-2.5,0.3-5,0.7-7.5,1.4
			c-1.8,0.5-3.5,1.2-5.1,2.1c-0.5,0.3-0.9,0.7-1.2,1.2c-0.5,0.7-1,1.4-1.5,2c-1.4,1.9-2.9,3.9-3.8,6.1c-0.8,1.7-1.3,3.4-1.3,5.3
			c0,2.3,0,4.6,0,7c0.6,0,1.2,0,1.7,0c0.7,0,1.4,0.1,2.1,0.1c0-0.7,0-1.3,0-2c0-1.5,0.1-3.1,0.1-4.6c0-0.2,0-0.3,0-0.5
			c0.3,2.4,0.6,4.8,0.8,7.1c3.4,0.3,6.7,0.9,9.8,2.5c5,2.4,8.6,6.2,11.2,11c2.6,4.8,4.1,10,4.6,15.4c0.7,6.5,0.3,12.9-1.4,19.2
			c-0.3,1-0.6,2-1,3.1c-1.8,0.2-3.6,0.6-5.4,1.1c2.5-0.6,5-0.9,7.5-0.9c3.8,0,7.4,0.8,10.5,2.9c0-20,0-39.9,0-59.9
			C161.3,78.8,161.2,78,161.1,77.1z M134.7,14.1c-0.2,0.2-0.5,0.5-0.7,0.6c-0.8,0.4-1.6,0.1-1.8-0.8c-0.3-1.1,0.3-2.6,1.3-3.3
			c0.9-0.6,1.8-0.2,1.9,1c0,0.1,0,0.3,0,0.4C135.5,12.8,135.2,13.5,134.7,14.1z M133.9,52.8c-0.1,0.6-0.3,1.3-0.5,2
			c-1-3.5,0.2-27.2,1.6-32.9c0.1,0,0.1,0,0.2,0c0.1,0.9,0.3,1.7,0.4,2.6C136.3,34,135.8,43.4,133.9,52.8z M132.6,69
			c-0.4,2.1-1.4,3.8-3,5.2c-0.3,0.3-0.8,0.5-1.2,0.7c-1,0.3-1.7-0.2-1.8-1.2c0-0.2,0-0.4,0-0.7c0.1-2,0.9-3.7,2.3-5.2
			c0.4-0.4,0.8-0.8,1.3-1.1c0.2-0.2,0.5-0.3,0.8-0.3c0.7-0.2,1.4,0.1,1.6,0.8C132.7,67.7,132.7,68.4,132.6,69z M136.7,68
			c-1,0-1.7-0.7-1.7-1.7c0-1,0.8-1.8,1.8-1.8c1,0,1.7,0.7,1.7,1.7C138.4,67.2,137.7,68,136.7,68z"/>
	</g>
	<g>
		<path d="M68.6,169.4c0.7-0.5,1.4-0.9,2.1-1.3c5-3.1,10.3-5.5,15.5-8.1c6.2-3,12.5-6.1,19-8.6c1.9-0.7,3.8-1.3,5.8-1
			c0.2,0,0.4-0.1,0.5-0.2c1.3-1.3,2.9-2,4.7-2.4c3-0.7,5.9-2,8.6-3.4c2.1-1.1,4.3-1.9,6.7-2.1c0.2,0,0.3,0,0.5-0.2
			c1.5-1.5,3.4-2.1,5.3-2.7c3.1-1.1,6.2-1.9,9.4-2.3c0.3-1,0.6-2,0.9-3c1.7-6.1,2-12.4,1.4-18.7c-0.6-5.3-1.9-10.3-4.5-15
			c-2.5-4.6-6-8.3-10.8-10.7c-3.9-1.9-8.1-2.4-12.4-2.6c-5.4-0.2-10.7,0.7-15.8,2.4c-2.6,0.8-5.2,1.9-7.7,2.8
			c-0.8,0.3-0.8,0.3-0.8-0.6c0-0.9,0.1-1.8,0.1-2.7c0.3-6.3,2.2-12.2,5.7-17.5c0.6-1,0.6-1.3-0.2-2.1c-1.8-1.8-3.9-2.7-6.5-2.7
			c-0.6,0-0.9,0.2-1.2,0.8c-1,2.4-1.8,4.8-2.3,7.3c-0.6,2.7-0.9,5.3-1.1,8.3c-0.2-0.3-0.2-0.4-0.3-0.4c-0.1-0.3-0.1-0.6-0.2-0.9
			c-0.7-5.2-3.4-9-8-11.5c-4.3-2.3-8.9-2.4-13.6-1.7c-0.6,0.1-0.8,0.3-0.6,0.9c1.1,5,3.2,9.4,7,12.9c2.8,2.6,6.2,3.8,10.1,3.3
			c1.1-0.1,2.1-0.4,3.1-0.8c0.3-0.1,0.5-0.2,0.7,0.1c0.7,1.1,1.6,2,1.7,3.4c0.1,1.7,0.2,3.4,0.5,5c0.1,0.5-0.2,0.6-0.6,0.4
			c-0.3-0.2-0.5-0.4-0.8-0.5c-3-2-6.2-3.8-9.6-5c-4.7-1.7-9.4-2.5-14.3-1.5c-9.5,1.9-16.5,7.2-20.9,15.7c-4.3,8.3-4.8,17.1-3.4,26.1
			c0.9,5.8,3.3,11,6.1,16c4,7.1,8.8,13.6,14.4,19.5C64.8,165.9,66.6,167.7,68.6,169.4z M80.2,102c1.1-1.1,2.9-1.4,4.2-0.7
			c0.8,0.4,1.3,1,1.3,1.9c0,0.9-0.5,1.5-1.3,1.9c-0.7,0.3-1.6,0.5-2.5,0.5c-0.1,0-0.2,0-0.3,0c-0.9-0.1-1.9-0.2-2.3-1.2
			C79,103.4,79.6,102.6,80.2,102z M62.2,110c-0.6,0-1.4-0.1-2.1-0.3c-3.5-1-5-4.3-3.4-7.5c1.1-2.2,2.9-3.7,5-4.7
			c3.1-1.5,6.4-2,9.8-1.4c0.5,0.1,1,0.3,1.5,0.4c3.3,1.2,3.4,4.2,2.1,6.4c-1.2,2-2.9,3.4-4.8,4.6C67.9,108.9,65.3,109.9,62.2,110z"
			/>
	</g>
	<path d="M105.8,78c0.6-1.6,1.5-3,2.7-4.3c0.2-0.2,0.4-0.4,0.5-0.7c0.2-0.5,0.6-0.9,0.9-1.5c-0.3,0-0.4,0.2-0.6,0.3
		c-1.4,0.9-2.4,2.2-3.2,3.6c-0.8,1.3-1.4,2.6-1.7,4.1c0,0.1,0,0.3-0.2,0.4c-0.1,0-0.2-0.1-0.3-0.2c-0.6-0.5-1.3-1.1-1.9-1.6
		c-0.2,0.5-0.4,1-0.6,1.5c1.5,1.2,2.9,2.4,4.2,3.7c0.5,0.5,1,1.1,1.5,1.6c0.4,0.4,0.8,0.8,1.2,1.3c0.6-0.1,1.1-0.3,1.7-0.4
		c-0.9-1.1-1.9-2.2-3-3.2c-0.6-0.5-1.1-1.1-1.7-1.7c-0.1-0.1-0.2-0.3-0.2-0.5C105.2,79.7,105.5,78.9,105.8,78z"/>
	<path d="M115.1,83c-1.2,0.6-2.3,1.4-3.1,2.5c0.5-0.1,1-0.2,1.5-0.2c0.3-0.3,0.6-0.5,0.9-0.8c0.3-0.2,0.6-0.4,0.8-0.7
		c0.2-0.4,0.7-0.5,1-0.9C115.8,82.7,115.5,82.8,115.1,83z"/>
	<path d="M84.9,68.5c-0.1-0.2-0.1-0.5-0.1-0.7c0-1.3-0.1-2.7-0.2-4c0-0.4,0-0.7,0-1.1c0-0.1,0-0.2-0.1-0.2c-0.1,0-0.2,0-0.2,0.1
		c-0.1,0.2-0.1,0.4-0.2,0.5c-0.2,1.6-0.4,3.2-0.2,4.8c0.1,0.1,0.2,0.1,0.4,0.2C84.4,68.3,84.7,68.4,84.9,68.5z"/>
	<path d="M93.2,159.1c0,0.2,0,0.3,0,0.5c-0.2,0-0.3-0.1-0.3-0.2c0,0,0,0,0-0.1c-0.5,0.2-1,0.5-1.5,0.7c0.5,0.2,1,0.5,1.4,0.9
		c0.5,0.4,1,0.9,1.4,1.4c0.2,0.3,0.5,0.5,0.8,0.8c-0.1-0.6-0.1-1-0.2-1.4c-0.2-1.1-0.3-2.1-0.3-3.2C94,158.7,93.6,158.9,93.2,159.1z
		"/>
	<path d="M12.3,105.1C12.3,105.1,12.3,105.1,12.3,105.1C12.3,105.1,12.3,105.1,12.3,105.1L12.3,105.1z"/>
	<path d="M98.9,61.9c-0.4,0.9-0.8,1.8-1.1,2.7c0.3,0,0.6,0.1,0.9,0.2c0.2-0.7,0.3-1.5,0.5-2.2c0.1-0.3,0.3-0.7,0.3-1
		C99.2,61.5,99,61.6,98.9,61.9z"/>
	<path d="M90.1,73.1c0.2,0.1,0.4,0.2,0.6,0.2c0.1-0.5,0.3-1,0.4-1.5c-1.2-0.5-2.3-1-3.5-1.4C88.5,71.2,89.4,72.1,90.1,73.1z"/>
	<g>
		<path d="M119.5,77.1c0,0-0.1,0-0.1,0c0.1-0.5,0.1-1,0.1-1.5c0.1-1.7-0.1-3.4-0.7-5c-0.9-2.5-2.5-4.4-4.5-6.1
			c-1-0.9-2.1-1.5-3.1-2.4c-1-0.8-2-1.6-2.7-2.7c-0.4-0.6-0.8-1.1-1.3-1.6c-0.8-0.7-1.6-1.4-2.7-1.7c-1.4-0.4-2.9-0.5-4.3-0.4
			c-1.9,0.1-3.8,0.4-5.7,0.5c-1,0-2,0.1-3.1-0.2c-2.6-0.7-5.3-0.9-8-0.9c-1.7,0-3.3,0.4-4.7,1.4c-0.8,0.5-1.7,0.8-2.6,0.8
			c-0.4,0-0.9,0-1.3-0.1c-1.5-0.1-2.8,0.3-4.1,1c-1.7,0.9-3,2.2-4.2,3.7c-0.5,0.6-1,1.3-1.6,1.8c-0.8,0.6-1,0.6-1.9,0.1
			c-0.3-0.2-0.4-0.3-0.4-0.7c0-0.8-0.4-1.5-1-2c-0.7-0.6-1.5-0.8-2.4-0.8c-0.7,0-1.5,0.2-2.2,0.2c-1.5-0.1-2.5,0.7-3.2,1.9
			c-0.8,1.4-1.3,2.9-1.2,4.5c0,0.4-0.1,0.7-0.3,1c-0.1,0.2-0.3,0.3-0.5,0.2c-0.3-0.2-0.6-0.2-0.9-0.3c-0.9-0.1-1.7-0.1-2.5,0.4
			c-0.7,0.5-1.6,0.8-2.4,1.2c-0.7,0.3-1.3,0.8-1.5,1.6c-0.2,0.7-0.6,1.1-1.2,1.4c-0.3,0.1-0.6,0.3-0.9,0.4c-0.4,0.2-0.7,0.2-1-0.1
			c-0.3-0.2-0.6-0.3-0.9-0.5c-1.2-0.5-2.3-1-3.5-1.4c-0.4-0.1-0.8-0.2-1.2-0.3c-1.4-0.1-2.8,0-4.2,0.3c-0.9,0.2-1.8,0.5-2.5,1.2
			c-0.5,0.5-1.1,0.8-1.8,1c-0.4,0.1-0.9,0.3-1.3,0.4c-1.8,0.4-3.4,1-4.9,1.9c-1.5,0.9-2.9,1.9-4.1,3.3c-2.4,2.8-3.9,6-4.9,9.5
			c-0.5,1.9-1.3,3.7-2.6,5.2c-0.5,0.6-1.1,1.3-1.6,2C7,96.7,6.5,98,6.2,99.5c-0.2,1.1-0.1,2.2,0.1,3.4c0.2,1.2,0,2.4-0.5,3.6
			c-0.5,1.1-0.7,2.2-0.8,3.4c0,1.1,0.1,2.2,0.7,3.1c0.4,0.6,0.7,1.2,1.1,1.9c0.7,1.3,1,2.6,0.6,4.1c-0.1,0.3-0.1,0.7-0.1,1
			c-0.2,1.2,0.3,2.1,1.2,2.8c0.8,0.6,1.6,1.1,2.5,1.5c0.9,0.5,1.6,1.1,2,2c0.1,0.3,0.1,0.4-0.1,0.6c-0.8,0.7-1.5,1.5-2,2.4
			c-1.4,2.1-2.4,4.4-2.3,7c0,1.3,0.3,2.6,1.1,3.7c0.4,0.5,0.7,1,1,1.6c0.1,0.3,0.1,0.5,0.1,0.8c-0.1,0.3-0.2,0.6-0.3,0.9
			c-0.1,0.6-0.2,1.2-0.3,1.9c-0.3,1.4-0.5,2.8-0.5,4.2c0,1.9,0.5,3.6,1.7,5c0.5,0.6,1.2,1,2.1,1.1c0.3,0,0.4,0.1,0.5,0.4
			c0.2,0.6,0.3,1.3,0.3,1.9c0.4,2.9,1.4,5.6,3.3,7.9c1.2,1.5,2.5,2.8,3.9,4.1c2,1.9,4.1,3.5,6.6,4.8c2.1,1.1,4.2,1.9,6.4,2.6
			c1.2,0.4,2.3,0.7,3.5,0.9c1.4,0.2,2.8,0.2,4.1,0.3c1.3,0,2.7,0,4-0.2c1.3-0.2,2.6-0.5,3.9-0.9c1.9-0.5,3.7-1.2,5.3-2.2
			c1.7-1,3.1-2.3,4.6-3.6c0.5-0.4,0.9-1,1.4-1.4c0.4-0.3,0.8-0.6,1.3-0.3c0.1,0,0.2,0,0.3,0c0.8,0,1.5,0,2.3,0c-1-0.9-2-1.9-3.1-3
			c-0.1,0.1-0.2,0.2-0.3,0.3c-0.2,0.2-0.6,0.3-0.8,0.5c-0.7,0.5-1.4,1.1-2.1,1.7c-1.4,1.4-3,2.8-4.7,3.9c-1.5,1-3.2,1.6-5,2
			c-1.7,0.4-3.4,0.9-5.1,0.9c-2.2,0-4.3,0.1-6.5-0.3c-1.9-0.4-3.8-1.1-5.6-1.8c-1.1-0.4-2.1-0.9-3.1-1.4c-2.2-1.2-4.2-2.7-6-4.4
			c-1.2-1.2-2.4-2.4-3.5-3.7c-1.6-1.9-2.5-4.1-2.8-6.6c-0.1-1.1-0.3-2.1-0.7-3.2c-0.2-0.4-0.4-0.8-0.8-1.1c-0.2-0.2-0.4-0.2-0.6-0.2
			c-0.1,0-0.2,0-0.2,0c-0.9,0.2-1.3-0.3-1.7-1c-0.4-0.8-0.6-1.6-0.7-2.5c0-1.2,0.1-2.4,0.3-3.6c0.1-0.4,0.1-0.7,0.2-1.1
			c0.1-0.6,0.2-1.2,0.4-1.8c0.3-0.9,0.2-1.8-0.3-2.6c-0.3-0.5-0.6-1-1-1.5c-0.5-0.8-0.8-1.6-0.8-2.5c-0.1-2.3,0.8-4.2,2.1-6
			c0.5-0.7,1-1.3,1.6-1.9c0.2-0.2,0.4-0.4,0.6-0.7c0.8-0.9,1.7-1.5,2.9-1.6c0.5,0,0.9,0,1.4,0c0.3,0,0.4,0.1,0.5,0.4
			c0.3,1.1,0.6,2.3,1,3.4c1.3,3.7,3,7.1,5.1,10.4c0.9,1.4,1.9,2.6,2.9,3.9c2.2,2.8,4.7,5.2,7.5,7.5c0.1,0.1,0.3,0.2,0.4,0.4
			c-0.1,0.2-0.3,0.1-0.4,0.1c-1,0-2.1,0-3.1,0c-1,0-2,0.2-2.9,0.7c-0.9,0.4-1.8,1-2.5,1.7c-1,1.1-2,2.3-2.8,3.5
			c-0.5,0.9-0.9,1.8-1.2,2.7c-0.5,1.4-0.6,2.8-0.4,4.3c0,0,0,0.1,0.1,0.1c0.1,0,0.1-0.1,0.1-0.2c0.1-1.3,0.4-2.5,1-3.7
			c0.1-0.2,0.2-0.5,0.3-0.7c0.9-2.3,2.4-4.3,4.3-5.9c1.2-1,2.6-1.5,4.2-1.5c1.2,0,2.4,0,3.5,0.1c1.2,0.1,2.3,0.6,3.2,1.4
			c0.2,0.2,0.6,0.3,0.8,0.5c3.3,2.1,6.8,3.8,10.4,5.1c0.1,0,0.3,0.1,0.4,0.2c-0.2,0-0.4,0-0.6,0c-1.7,0-3.4-0.1-5.1-0.3
			c-1.2-0.1-2.4-0.2-3.6-0.4c-0.3-0.1-0.4,0.1-0.3,0.4c0.1,0.2,0.2,0.4,0.6,0.5c0.3,0.1,0.6,0.2,0.9,0.4c1.2,0.5,2.5,0.6,3.7,0.7
			c1.2,0.1,2.3,0.1,3.5,0.2c2.2,0,4.3-0.2,6.4-0.6c-0.3-0.4-0.7-0.8-1-1.2c-0.2,0-0.4,0-0.6,0c-8.6-2.4-16.2-6.6-22.6-13
			c-6.7-6.8-10.9-14.9-12.7-24.3c-0.6-3.3-0.8-6.7-0.6-10c0.3-3.6,0.9-7.2,2.1-10.6c0.2-0.6,0.3-1.1,0.2-1.7c-0.5-0.7-1-1.5-1.7-2.1
			c-0.3-0.2-0.5-0.6-0.8-0.8c-0.5-0.6-0.5-1.3-0.3-2c0.4-1.4,1.3-2.5,2.3-3.5c0.3-0.4,0.9-0.4,1.3-0.4c0.9-0.1,1.8,0.1,2.6,0.5
			c0.9,0.6,1.9,0.5,2.8,0.1c0.1-0.1,0.3-0.1,0.4-0.2c0.4-0.2,0.8-0.3,1.3,0c0.8,0.4,1.7,0.4,2.4-0.3c0.3-0.2,0.6-0.5,0.8-0.7
			c1.1-0.9,2.5-1.2,3.9-1.3c0.3,0,0.5,0.1,0.8,0.3c0.5,0.4,1,0.8,1.6,1.2c0.9,0.6,1.8,0.8,2.9,0.7c1.3-0.1,2.5-0.1,3.8-0.2
			c0.7,0,1.1,0.4,1.4,0.9c0,0.1,0.1,0.1,0.1,0.2c0.1,0.6,0.5,1,0.9,1.2c0.3-0.4,0.7-0.7,1.1-1.1c-0.4-0.1-0.7-0.3-0.8-0.8
			c-0.2-0.7-0.7-1.1-1.3-1.5c-0.3-0.2-0.7-0.2-1-0.3c-1.3,0-2.7-0.1-4,0.1c-1.3,0.2-2.3-0.3-3.2-1.1c-0.1-0.1-0.2-0.1-0.3-0.2
			c-0.8-0.8-1.8-1-3-0.8c-1,0.2-2,0.5-3,0.9c-0.3,0.2-0.6,0.4-0.9,0.7c-0.3,0.3-0.7,0.5-1,0.8c-0.2,0.1-0.4,0.1-0.6,0
			c-0.1,0-0.2,0-0.2-0.1c-0.7-0.5-1.5-0.3-2.2,0c-0.3,0.1-0.7,0.3-1,0.4c-0.1-0.2,0-0.3,0.1-0.4c2-3,4.2-5.7,6.9-8.1
			c0.2-0.2,0.4-0.5,0.6-0.8c0.3-0.5,0.6-1,0.9-1.5c0.4-0.8,0.4-1.6-0.1-2.4c-0.1-0.1-0.2-0.2-0.2-0.4c0.2-0.2,0.5-0.2,0.8-0.2
			c0.8-0.2,1.4-0.6,1.9-1.2c0.1-0.1,0.1-0.1,0.2-0.2c0.7-0.8,1.6-1,2.7-0.7c0.6,0.2,1.2,0.4,1.8,0.4c0.6,0,1-0.3,1.2-0.9
			c0.1-0.6,0.4-1,1-1.2c0.1,0,0.2-0.1,0.4-0.2c0.4-0.1,0.6-0.4,0.5-0.8c-0.1-0.9,0.4-1.4,1.3-1.4c0.7,0,1.2-0.3,1.7-0.6
			c1-0.6,1.9-0.5,2.6,0.4c0.1,0.1,0.2,0.2,0.3,0.3c0.6,0.4,0.9,1.1,1.2,1.8c0.3,0.7,0.8,1.2,1.5,1.6c1.1,0.5,2.1,1,3.2,1.4
			c1.3,0.5,2.5,1.2,3.1,2.5c0.6,1.2,1.2,2.4,1.7,3.6c0.2,0.5,0.6,0.9,1.2,1c0.4,0.1,0.8,0.2,1.2,0.3c0.7,0.2,1.2,0.6,1.5,1.1
			c0.5-0.1,1-0.2,1.5-0.2c-0.4-0.9-1.1-1.6-2.1-2.1c-0.3-0.1-0.6-0.3-0.9-0.3c-0.8-0.1-1.1-0.5-1.4-1.2c-0.4-0.9-0.8-1.8-1.3-2.7
			C61.4,76,59.8,75,58,74.4c-1.1-0.4-2-0.9-3-1.4c-0.3-0.1-0.4-0.4-0.6-0.7c-0.3-0.6-0.5-1.2-0.9-1.7c-0.2-0.3-0.2-0.7,0.1-1
			c0.4-0.4,0.7-0.9,0.9-1.4c0.1-0.2,0.1-0.4,0.2-0.7c0-0.2,0-0.3-0.1-0.5c-0.5-0.7-0.4-1.5,0.3-2.1c0.2-0.2,0.4-0.5,0.3-0.8
			c-0.2-0.9,0.2-1.5,1.1-1.6c0.4,0,0.8,0,1.1,0c0.4,0,0.8,0,1.2-0.1c0.3-0.1,0.6-0.1,0.9,0c0.5,0,0.8,0.3,0.9,0.9
			c0,0.7,0.3,1.3,0.6,1.9c0.4,0.8,0.9,1.5,1.5,2.1c0.5,0.3,1,0.7,1.7,0.8c0.3,0.1,0.6,0.3,1,0.3c0.5,0.1,1,0.1,1.6,0.2
			c0-0.5,0.2-0.9,0.5-1.3c0,0,0,0,0-0.1c-1.1,0-2.1-0.2-3.1-0.6c-0.1-0.1-0.3-0.1-0.4-0.3c0-0.1,0.1-0.1,0.2-0.1
			c1.1,0,1.9-0.5,2.7-1.2c0.7-0.6,1.2-1.2,1.7-1.9c0.8-1.1,1.8-2.1,3-2.9c1-0.7,2.2-1.2,3.5-1c0.7,0.1,1.3,0.1,2,0
			c1.1,0,2.2-0.4,3.1-1c1.2-0.8,2.4-1.1,3.8-1.1c2.7,0,5.3,0.3,7.9,1c0.7,0.2,1.5,0.2,2.2,0.1c1.2-0.1,2.4-0.1,3.5-0.2
			c0.9-0.1,1.8-0.2,2.7-0.3c1-0.1,2.1-0.1,3.1,0.1c1.1,0.1,1.9,0.6,2.7,1.4c0.3,0.3,0.6,0.7,0.9,1.1c0.8,1.2,1.8,2.2,2.9,3.1
			c1.1,0.8,2.2,1.6,3.2,2.4c2.2,1.8,3.8,4,4.4,6.9c0.2,1.1,0.1,2.3,0.1,3.5c0,0.3,0,0.6-0.1,0.9c-0.1,0.6,0.2,1,0.5,1.5
			c0.4,0.6,1,0.6,1.6,0.6c0.1,0,0.2,0,0.3,0C119.5,78.6,119.5,77.8,119.5,77.1z M36.8,75.5c-0.3,0.3-0.7,0.4-1,0.4
			c-0.4,0-0.7,0.1-1,0.3c-0.7,0.4-0.7,1.1-0.5,1.9c0.1,0.1,0.1,0.3,0.2,0.4c0.3,0.4,0.3,0.8,0.1,1.2c-0.2,0.5-0.5,1-0.9,1.4
			c-0.5,0.4-0.9,0.9-1.4,1.3c0,0,0,0-0.1,0c-0.2-0.1-0.2-0.3-0.3-0.5c-0.5-1.1-1.1-2.2-1.9-3.3c-0.2-0.3-0.5-0.4-0.9-0.5
			c0.5,0.7,0.7,1.6,1,2.4c0.2,0.7,0.6,1.3,0.9,1.9c0.3,0.8,0.3,0.8-0.3,1.5c-1.6,1.9-3.1,3.8-4.1,6.1c-0.1,0.2-0.2,0.3-0.4,0.5
			c-0.2,0.1-0.3,0.2-0.5,0.1c-1.3-0.7-2.6-0.7-3.9-0.3c-0.3,0.1-0.5,0-0.7-0.1c-0.5-0.3-1-0.5-1.4-0.8c-0.7-0.4-1.3-0.3-2.1,0
			c1,0.6,2.1,1,3,1.7c-0.3,0.4-0.6,0.7-0.9,1c-0.8,0.9-1.3,1.8-1.7,3c-0.3,1.2-0.3,2.3,0.5,3.3c0.3,0.4,0.6,0.8,1,1.1
			c0.1,0.1,0.2,0.2,0.3,0.2c0.8,0.6,0.8,1.4,0.7,2.2c-0.1,0.6-0.3,1.1-0.5,1.7c0,0.2-0.1,0.3-0.3,0.2c-0.3-0.1-0.7-0.2-1-0.2
			c-2-0.1-3.9,0-5.6,1.1c-0.2,0.1-0.4,0.2-0.6,0.3c-0.1,0.1-0.2,0.2-0.1,0.3c0.6-0.1,1.1-0.3,1.7-0.4c1.4-0.3,2.9-0.4,4.4-0.3
			c0.3,0,0.6,0.1,0.8,0.1c0.4,0.1,0.4,0.1,0.4,0.5c-0.2,0.8-0.3,1.6-0.5,2.3c-0.3,1.7-0.5,3.4-0.6,5.1c0,0,0,0.1,0,0.1
			c0,0.6,0,0.6-0.7,0.8c-0.3,0.1-0.6,0.1-0.8,0.2c-0.7,0.1-1.3,0.4-1.9,0.8c-0.5,0.4-1.1,0.8-1.6,1.3c-0.1,0.1-0.2,0.1-0.1,0.3
			c0.3,0,0.5-0.2,0.7-0.3c0.6-0.3,1.2-0.6,1.9-0.9c0.7-0.3,1.4-0.4,2.1-0.4c0.4,0,0.4,0,0.4,0.4c0,0.4,0,0.8,0,1.1
			c0,2.3,0.2,4.6,0.6,6.9c0,0.3,0,0.4-0.2,0.6c-0.4,0.3-0.7,0.6-1.1,0.9c-0.2,0.2-0.4,0.2-0.6,0.2c-0.8-0.1-1.6-0.3-2.4-0.3
			c-0.1,0-0.3,0-0.4-0.1c-0.7-1.1-1.9-1.6-3-2.2c-0.5-0.2-0.9-0.5-1.3-0.8c-0.4-0.3-0.5-0.6-0.5-1.1c0.1-0.7,0.3-1.4,0.3-2.2
			c0-1.6-0.5-2.9-1.3-4.3c-0.3-0.6-0.8-1.2-1.1-1.8c-0.2-0.3-0.2-0.7-0.2-1c0-1.1,0.1-2.2,0.6-3.3c0.6-1.4,0.8-2.8,0.7-4.4
			c-0.1-0.6-0.2-1.3-0.2-1.9c0-1.9,0.6-3.5,1.8-4.9c0.7-0.9,1.5-1.7,2.1-2.7c0.8-1.2,1.4-2.4,1.7-3.8c0.6-1.9,1.2-3.9,2.1-5.6
			c0.9-1.7,1.9-3.3,3.3-4.6c1.9-1.7,4-3,6.5-3.5c1.1-0.2,2.3-0.6,3.3-1.1c0.4-0.2,0.8-0.4,1.1-0.8c0.5-0.5,1-0.7,1.6-0.9
			c1-0.3,2.1-0.4,3.2-0.3c0.7,0,1.4,0.4,2,0.6c0.4,0.2,0.8,0.3,1.4,0.5C37.8,74.4,37.3,75,36.8,75.5z"/>
	</g>
	<path d="M101.3,88.6c0.3-0.1,0.6-0.2,0.9-0.3c-0.6-1.4-1.3-2.7-2.1-3.9c-0.1,0.4-0.2,0.9-0.2,1.3C100.3,86.6,100.8,87.6,101.3,88.6
		z"/>
	<path d="M193.8,81.9c0-0.1,0-0.2,0-0.3c-0.4-2.6-2.7-3.9-4.8-3.8c-1.6,0-3.2-0.2-4.7,0.1c-1.6,0.3-3.2,0.3-4.8,0.1
		c-0.6,0-1.2-0.1-1.8-0.1c-0.3-0.1-0.6-0.1-0.8,0c0,0.1-0.1,0.2-0.3,0.1c-0.1,0-0.2,0-0.3,0c-0.1,0-0.2,0-0.3-0.1
		c-0.3-0.2-0.7-0.1-1.1-0.1c-3.7,0-7.5,0-11.2,0c0.1,0.7,0.1,1.3,0.1,1.9c0,1.8,0,3.5,0,5.3c9.4,0,18.8,0,28.2,0
		c0.6,0,1.2-0.1,1.8-0.1C193.8,83.9,193.8,82.9,193.8,81.9z"/>
	<path d="M184.3,86.9c-6.8,0-13.7,0-20.5,0c0,2.1,0,4.1,0,6.2c7.9,0,15.9,0,23.8,0c1.8-0.7,2.4-2.1,2.4-4c0-0.6,0.1-0.9,0.7-1.2
		c0.5-0.2,0.9-0.4,1.3-1C189.3,86.9,186.8,86.9,184.3,86.9z"/>
	<g>
		<path d="M163.8,140c2.8-2.4,6.1-3.9,9.6-5.3c5.2-2.1,10.3-5.5,15.8-10.6l0.2-0.1c0.9-0.8,1.8-1.7,2.7-2.5c0.6-0.6,1.3-1,1.9-1.4
			c0-2.5-0.1-5.1-0.2-7.6c-0.1-1.5-1.2-1.9-2.3-2.4c0,0,0-0.1,0-0.1c-2.1-0.5-4.1-0.4-6.2,0.1c-5.2,1.3-10.5,1.5-15.7,1.5
			c-1.9,0-3.9-0.1-5.8-0.2c0,9.4,0,18.9,0,28.3L163.8,140C163.8,139.9,163.8,140,163.8,140z"/>
		<path d="M191.7,140C191.7,140,191.7,140,191.7,140C191.7,140,191.7,140,191.7,140C191.7,139.9,191.7,139.9,191.7,140
			C191.7,139.9,191.7,139.9,191.7,140z"/>
	</g>
	<g>
		<path d="M163.9,142.1l-0.2,0.2v0L163.9,142.1C164,142,164,142,163.9,142.1z"/>
		<path d="M192,86.9c-0.3,0.6-0.8,0.9-1.3,1c-0.6,0.2-0.7,0.6-0.7,1.2c0.1,1.8-0.6,3.2-2.4,4c0.5,0.3,0.6,0.8,0.4,1.2
			c-0.7,1.6-1.9,2.6-3.6,3.1c-1.8,0.5-3.7,0.2-5.6,0.4c0,0-0.1,0-0.1,0c-0.1,0-0.3,0-0.5,0c-0.2,0-0.3,0.1-0.4,0.3
			c-0.1,0.4,0.4,0.5,0.8,0.6c1.7,0.7,3.4,1.4,4.8,2.5c1.1,0.9,2.2,1.4,3.6,1.4c0.3,0,0.5,0,0.8-0.1c0.1,0,0.2,0,0.3,0
			c0.7,0,1.1,0.5,1.5,1c1.4,1.9,1.3,4.2,1.9,6.2l0,0.1c1.1,0.5,2.2,0.9,2.3,2.4c0.1,2.5,0.2,5.1,0.2,7.6c0.1,0,0.1-0.1,0.2-0.1
			l0.5-0.3c0-2.5-0.1-4.9-0.2-7.3c-0.1-1.8-1.4-2.4-2.4-2.9c-0.2-0.6-0.3-1.3-0.4-1.9c-0.3-1.4-0.6-2.9-1.5-4.3
			c-0.4-0.5-1-1.3-2-1.3c-0.1,0-0.3,0-0.4,0c-0.2,0-0.5,0.1-0.7,0.1c-1,0-2-0.4-3.2-1.3c-1.3-1-2.8-1.7-4.3-2.3c0.5,0,0.9,0,1.4,0
			c1.2,0,2.3,0,3.5-0.4c1.9-0.5,3.2-1.7,4-3.5c0.2-0.4,0.2-0.9,0-1.3c1.4-0.9,2.1-2.3,2-4.2c0-0.4,0-0.4,0.3-0.5
			c0.5-0.2,1.2-0.5,1.6-1.3l0.5-1H192h-7.7l-5.2,0c-5,0-10.2,0-15.4,0c0,0.2,0,0.4,0,0.7c6.8,0,13.7,0,20.5,0
			C186.8,86.9,189.3,86.9,192,86.9z"/>
	</g>
	<g>
		<path d="M195,139.9c0.2-0.3,0.5-0.6,0.7-1c0-0.8,0.1-1.6,0.1-2.4c-0.2,0.4-0.5,0.9-0.7,1.3C195.1,138.5,195.1,139.2,195,139.9z"/>
		<path d="M192,85.7c0.4,0,0.9,0,1.3-0.1c0.1,0,0.2,0,0.3,0c0.2,0.2,0.5,0.4,1,0.4c-0.3,1.3-0.2,2.6,0,3.6c-0.3,0.6-0.3,1.2,0,1.8
			c-0.2,0.4-0.5,0.5-1.3,0.6c-0.2,0-0.5,0.1-0.7,0.1c-1.1,0.3-1.7,0.9-1.7,2.1c0,0.1,0,0.2,0,0.3c-0.1,1.5-0.2,3.5,2,4.3
			c0,0,0,0,0.1,0c1.9,1.6,3,3.8,3.1,7c0.1,2.4,0.2,4.8,0.3,7.1c0.1,1.4,0.1,2.9,0.2,4.3c0,0.8,0,1.5,0,2.3h0.7c0-0.8,0-1.5,0-2.3
			c-0.2-3.8-0.3-7.6-0.4-11.5c-0.1-2.9-1-5.5-3.4-7.4c0,0,0-0.1-0.1-0.1c-2.1-0.7-1.8-2.4-1.8-4c0-0.8,0.3-1.2,1.2-1.5
			c0.9-0.2,2.2,0,2.5-1.5c-0.3-0.5-0.3-1,0-1.5c-0.2-1.2-0.3-2.4,0-3.6c0.1-0.3,0.1-0.6-0.2-0.8c-0.2,0-0.3,0-0.5,0
			c-0.3,0-0.5-0.1-0.6-0.4c0,0,0,0-0.1,0c0,0-0.1,0-0.1,0c-0.6,0-1.2,0.1-1.8,0.1c-1.9,0-3.8,0-5.7,0c-7.5,0-15,0-22.5,0
			c0,0.2,0,0.4,0,0.7c6.8,0,14.1,0,22.5,0L192,85.7z"/>
	</g>
</g>
<path class="st0" d="M106.1-278.9c-0.3,0.6-0.7,0.7-1.3,0.5C105.2-278.5,105.6-278.7,106.1-278.9z"/>
<path class="st0" d="M103.3-278.3c-0.6,0.2-1.1,0-1.3-0.6C102.4-278.8,102.8-278.6,103.3-278.3z"/>
<path class="st0" d="M353.3-21.3c0.5-0.5,0.9-0.4,1.3,0.2C354.2-21.2,353.8-21.3,353.3-21.3z"/>
</svg>
