<?xml version="1.0" encoding="utf-8"?>
<!-- Generator: Adobe Illustrator 22.0.0, SVG Export Plug-In . SVG Version: 6.00 Build 0)  -->
<svg version="1.1" id="Layer_1" xmlns="http://www.w3.org/2000/svg" xmlns:xlink="http://www.w3.org/1999/xlink" x="0px" y="0px"
	 viewBox="0 0 216 216" style="enable-background:new 0 0 216 216;" xml:space="preserve">
<path d="M66.2,26.1c29.4-14.7,64.7-12.8,92.2,5.1c26.2,17,42,47,41.8,78.1c-0.2,30.1-15.8,59.1-40.9,75.8
	c-25.9,17.2-59.9,20.6-88.4,7.9c-34.4-15.3-55.8-49.8-55.2-87.3c0.2-9.7-14.8-9.7-15,0c-0.7,38.6,19.3,75.3,52.5,95
	c31.3,18.6,70.5,19.7,103,3.5c31.8-15.8,53.6-47.5,58.1-82.6c4.6-35.8-10.1-73.1-38.2-95.9C142.8-1.4,97-6.1,58.6,13.1
	C50,17.5,57.6,30.4,66.2,26.1L66.2,26.1z"/>
<path d="M43.2,102.9c-16.8,0-32-11.7-35.7-28.7c-4.3-19.7,8.2-39.3,27.9-43.6c9.5-2.1,19.3-0.4,27.6,4.9c8.2,5.3,13.9,13.4,16,23v0
	c4.3,19.7-8.2,39.3-27.9,43.6C48.4,102.7,45.8,102.9,43.2,102.9z M43.2,50.8c-1.1,0-2.3,0.1-3.4,0.4C31.5,53,26.1,61.3,28,69.7
	c1.8,8.4,10.2,13.7,18.6,11.9c8.4-1.8,13.7-10.2,11.9-18.6v0c-0.9-4.1-3.3-7.5-6.8-9.8C49,51.6,46.2,50.8,43.2,50.8z"/>
<path d="M60.4,90.4c26,16.7,52.1,33.3,78.1,50c3.7,2.4,7.4,4.7,11.1,7.1c-1.1-4.1-2.2-8.2-3.2-12.3c-6.5,10.1-12.9,20.2-19.4,30.3
	c-6.3,9.8,9.3,18.8,15.5,9.1c6.5-10.1,12.9-20.2,19.4-30.3c2.7-4.2,0.7-9.8-3.2-12.3c-26-16.7-52.1-33.3-78.1-50
	c-3.7-2.4-7.4-4.7-11.1-7.1C59.7,68.6,50.6,84.2,60.4,90.4L60.4,90.4z"/>
<path d="M110,114.6c-4.8,7.5-9.7,15.1-14.5,22.6c-6.3,9.8,9.3,18.8,15.5,9.1c4.8-7.5,9.7-15.1,14.5-22.6
	C131.8,113.9,116.2,104.9,110,114.6L110,114.6z"/>
</svg>
