<?xml version="1.0" encoding="utf-8"?>
<!-- Generator: Adobe Illustrator 22.0.0, SVG Export Plug-In . SVG Version: 6.00 Build 0)  -->
<svg version="1.1" id="Layer_1" xmlns="http://www.w3.org/2000/svg" xmlns:xlink="http://www.w3.org/1999/xlink" x="0px" y="0px"
	 viewBox="0 0 216 187.5" style="enable-background:new 0 0 216 187.5;" xml:space="preserve">
<style type="text/css">
	.st0{fill:#D7AF78;}
	.st1{fill:#734E29;}
	.st2{fill:#D5DF74;}
	.st3{fill:#FEF6ED;}
</style>
<path class="st0" d="M106.1-278.9c-0.3,0.6-0.7,0.7-1.3,0.5C105.2-278.5,105.6-278.7,106.1-278.9z"/>
<path class="st0" d="M103.3-278.3c-0.6,0.2-1.1,0-1.3-0.6C102.4-278.8,102.8-278.6,103.3-278.3z"/>
<path class="st0" d="M353.3-21.3c0.5-0.5,0.9-0.4,1.3,0.2C354.2-21.2,353.8-21.3,353.3-21.3z"/>
<g>
	<path class="st1" d="M74.9,3.9c0,0.1,0,0.1,0,0.2c-0.1-0.1-0.2-0.1-0.3-0.2C74.7,3.9,74.8,3.9,74.9,3.9z"/>
	<path class="st1" d="M69,3.9c-0.1,0.1-0.1,0.2-0.2,0.2c-0.1,0-0.1-0.1-0.1-0.2C68.8,3.9,68.9,3.9,69,3.9z"/>
	<path d="M172.6,64.6c2.5-4,5-8,7.3-12.2c1.8-2.5,3.2-5.2,4.9-7.8c1.5-2.4,3-4.8,4.6-7.2c2.7-4,9.2-6.5,13.9-3.6
		c2.2,1.4,4.8,2.5,6.6,4.4c3.8,3.9,4.1,10.5,1,15c-5.3,7.5-11.1,14.7-16.7,22c-3.5,4.6-7.1,9.1-10.7,13.6c-0.3,0.3-0.7,0.6-0.7,1.1
		c-2.7,3.3-5.3,6.7-8,10c-0.6,0.6-1.2,1.3-1.7,2.1c-2.8,3.5-5.6,7-8.4,10.6c-0.6,0.7-1.3,1.2-1.5,2.1c-0.3,0.3-0.6,0.6-0.9,1
		c-2.5,3.2-5.1,6.4-7.6,9.6c-0.6,0.7-1.2,1.3-1.6,2.1c-1.6,2.2-3.5,4.2-5,6.5c-0.4,0-0.6,0.4-0.8,0.7c-3.9,4.9-6,10.4-6,16.8
		c0.1,6.6-0.8,13-3.4,19.2c-2.1,4.9-5.1,9.2-9.5,12.4c-7.1,5.1-16.9,3.2-22.6-0.8c-4.6-3.3-7.7-7.5-8.6-13.2
		c-0.6-3.8,0.1-7.5,1.6-11.1c0.3-0.6,0.5-1.2,0.8-1.9c2.9-5.4,7-9.8,12.1-13c3.9-2.5,8.2-4.2,12.5-5.8c4.3-1.6,7.6-4.5,10-8.3
		c0.5-0.7,0.9-1.4,1.4-2c0.2-0.2,0.5-0.3,0.6-0.5c2-3.3,3.9-6.7,5.9-10c0.4-0.6,0.7-1.3,1.1-1.9c2.3-3.4,4.3-7,6.3-10.6
		c0.4-0.6,0.7-1.3,1.1-1.9c1.7-2.3,3-4.9,4.5-7.4c0.6-1,1.2-2.1,1.8-3.2c0.5-0.6,0.9-1.2,1.1-2c1.8-2.4,3.2-5.2,4.8-7.7
		c0.6-0.9,1.1-1.9,1.6-2.8c0.4-0.6,0.7-1.3,1.1-1.9c2.2-3.4,4.3-6.9,6.2-10.4C171.9,65.9,172.3,65.2,172.6,64.6z M130.2,152.2
		c-0.1,2.4-0.3,4.8-0.9,7.1c-0.8,3-2.3,5.6-4.1,8c-2.7,3.7-5.6,7.1-9.7,9.2c-4.2,2.1-8,1.4-11.3-1.9c-0.7-0.7-1.3-1.4-2.1-2.4
		c0.1,0.5,0.1,0.7,0.2,0.9c2.9,5.7,8.6,8.6,14.6,4.8c6.9-4.3,11.4-10.6,13.3-18.5C130.7,157,130.8,154.6,130.2,152.2z M200.9,44.1
		c-0.1-0.8-0.1-1.3-0.2-1.8c-0.1-0.5-0.3-0.8-0.9-0.5c-4,2.4-7.1,5.4-8.1,10.1c-0.2,0.7-0.7,1.8,0,2.3c0.8,0.6,1.8,0.1,2.7-0.2
		c0,0,0.1,0,0.1-0.1C198.4,51.8,200.3,48.3,200.9,44.1z M101.9,171.9c0,0,0-0.1,0-0.1c0,0-0.1,0-0.1,0
		C101.9,171.8,101.9,171.9,101.9,171.9C101.9,171.9,101.9,171.9,101.9,171.9z"/>
	<g>
		<path d="M182.7,90c0.4,5.3,0.8,10.5,1.2,15.8c0.5,6.8,1,13.5,1.5,20.3c0.4,5.9,0.9,11.7,1.2,17.6c0.2,3.6-2.2,6-5.8,6.3
			c-7.7,0.6-15.4,1.2-23.1,1.8c-2.5,0.2-5,0.4-7.6,0.6c-0.1,0-0.2,0-0.2,0c-0.6,0-0.8-0.3-0.8-1c-0.1-2-0.2-4.1-0.4-6.1
			c-0.1-0.6,0.2-0.9,0.4-1.4c2.3-3.5,1.8-7-1.3-9.9c1.5-2.3,3.4-4.3,5-6.5c7.7-0.6,15.4-1.2,23.1-1.7c0.8-0.1,1.5,0,1.4-1.1
			c-0.1-0.7-0.5-0.8-0.9-0.8c-0.2,0-0.4,0-0.6,0c-4.1,0.3-8.2,0.6-12.3,0.9c-3,0.2-6,0.4-9,0.6c2.5-3.2,5.1-6.4,7.6-9.6
			c0.3-0.3,0.6-0.7,0.9-1c4.1-0.3,8.2-0.7,12.3-1c0.9-0.1,1.4-0.4,1.1-1.3c-0.1-0.5-0.5-0.6-0.9-0.6c-0.2,0-0.4,0-0.6,0
			c-3.5,0.2-6.9,0.7-10.4,0.7c2.8-3.5,5.6-7,8.4-10.6c0.5,0,1-0.1,1.5-0.1c0.6-0.1,1.2-0.1,1.3-0.9c0.1-0.8-0.6-0.9-1.1-1.1
			C177.4,96.6,180.1,93.3,182.7,90 M185.1,82.2l-4.7,5.9l-7.6,9.5l-0.4,0.5l-2.3,2.8l0,0l-7.1,9l-0.7,0.9l-3.8,4.8l0,0
			c-1.5,1.9-3,3.8-4.5,5.7l-1.7,2.2l-0.9,1.1l0,0l-0.4,0.6l-2.8,3.6l0,0c-0.9,1.1-1.9,2.3-2.7,3.7l-1.3,2.1l1.8,1.7
			c2,1.8,2.2,3.8,0.8,6.1c-0.4,0.6-1.1,1.6-0.9,3.2c0.2,1.8,0.3,3.8,0.4,5.9c0.1,2.8,2.1,3.8,3.8,3.8c0.2,0,0.3,0,0.5,0
			c1.7-0.2,3.5-0.3,5.1-0.4c0.8-0.1,1.6-0.1,2.4-0.2c2.3-0.2,4.7-0.4,7-0.6c5.3-0.4,10.7-0.9,16.1-1.2c5.3-0.4,8.8-4.3,8.5-9.4
			c-0.3-4.7-0.6-9.5-1-14.2c-0.1-1.1-0.2-2.3-0.3-3.4c-0.4-5.4-0.8-10.9-1.2-16.2l-0.3-4.1c-0.3-3.6-0.5-7.1-0.8-10.7l-0.4-5.1
			L185.1,82.2L185.1,82.2z"/>
	</g>
	<path class="st2" d="M187.7,109.5c0.1,0.4,0.1,0.8,0,1.2C187.6,110.3,187.5,109.9,187.7,109.5z"/>
	<path d="M9.7,108.6c-0.2-0.2-0.2-0.5,0-0.7C9.8,108.1,9.8,108.3,9.7,108.6z"/>
	<path d="M157.8,89.4c-0.2,0.8-0.7,1.4-1.1,2c-10.5,0.8-21.1,1.5-31.6,2.3c-12.5,0.9-25,1.9-37.6,2.9c-10.3,0.8-20.6,1.5-30.9,2.3
		c-12,0.9-24,1.8-35.9,2.7c-0.3,0-0.5,0.1-0.8,0.1c-0.6,0-0.9-0.3-1-0.9c0-0.6,0.3-0.9,0.9-0.9c1.6-0.1,3.1-0.3,4.7-0.4
		c7.7-0.6,15.4-1.1,23.1-1.7c9-0.7,18-1.4,27-2.1c6.5-0.5,13-1,19.5-1.5c7.9-0.6,15.9-1.2,23.8-1.8c6.2-0.5,12.3-0.9,18.5-1.4
		C143.5,90.5,150.6,89.9,157.8,89.4z"/>
	<path d="M150.4,101.9c-0.4,0.6-0.7,1.3-1.1,1.9c-5.3,0.4-10.6,0.8-15.9,1.2c-8,0.6-16,1.2-24,1.8c-7.6,0.6-15.2,1.1-22.8,1.7
		c-8,0.6-15.9,1.2-23.9,1.8c-6.3,0.5-12.5,0.9-18.8,1.4c-6.9,0.5-13.9,1-20.8,1.6c-0.8,0.1-1.5,0.1-2.3,0.1c-0.6,0-0.9-0.3-1-0.9
		c-0.1-0.6,0.3-0.9,0.9-1c1.3-0.1,2.7-0.2,4.1-0.3c10.2-0.8,20.4-1.5,30.7-2.3c13.7-1,27.4-2.1,41.1-3.1c10.2-0.8,20.4-1.5,30.7-2.3
		C134.8,103.1,142.6,102.5,150.4,101.9z"/>
	<path d="M50.9,51.7c-0.2,0-0.5,0-0.7,0c-0.7,0-1-0.3-1.1-0.9c-0.1-0.7,0.4-0.9,1-1c2.5-0.2,5-0.4,7.4-0.6
		c11.7-0.9,23.4-1.8,35.1-2.7c7.7-0.6,15.5-1.1,23.2-1.7c10.2-0.8,20.4-1.6,30.5-2.3c7.7-0.6,15.5-1.2,23.2-1.7
		c0.5,0,1.1-0.2,1.5,0.3c0.2,0.3,0.2,0.7,0.1,1c-0.2,0.5-0.6,0.6-1.1,0.6c-3.5,0.3-6.9,0.5-10.4,0.8c-9.3,0.7-18.6,1.4-27.8,2.1
		c-7.7,0.6-15.4,1.1-23.1,1.7C99.5,48,90.3,48.7,81,49.4c-6.4,0.5-12.9,1-19.3,1.4C58.1,51.1,54.5,51.4,50.9,51.7
		C50.9,51.7,50.9,51.7,50.9,51.7z"/>
	<path d="M169.9,52.7c0.3,0,0.6,0,0.9-0.1c0.6,0,1.4-0.1,1.4,0.8c0.1,0.8-0.6,1.1-1.3,1.2c-2.5,0.2-5,0.4-7.6,0.6
		c-9.3,0.7-18.6,1.4-27.8,2.1c-7.7,0.6-15.5,1.1-23.2,1.7c-9.2,0.7-18.4,1.4-27.6,2.1c-6.5,0.5-13,1-19.5,1.4
		c-4.5,0.3-8.9,0.7-13.4,1c-0.3,0-0.5,0-0.8,0.1c-0.6,0-1.1-0.3-1.1-0.9c-0.1-0.7,0.4-0.9,1-1c3.4-0.2,6.8-0.5,10.1-0.8
		c9.3-0.7,18.6-1.4,28-2.1c7.7-0.6,15.5-1.1,23.2-1.7c9-0.7,18-1.4,27-2.1c7.6-0.6,15.1-1.1,22.7-1.7
		C164.6,53.1,167.3,52.9,169.9,52.7C169.9,52.7,169.9,52.7,169.9,52.7z"/>
	<path d="M172.6,64.6c-0.4,0.7-0.7,1.3-1.1,2c-8.4,0.6-16.8,1.2-25.1,1.9c-7.7,0.6-15.3,1.1-23,1.7c-9.3,0.7-18.6,1.4-28,2.1
		c-7.5,0.6-15,1.1-22.6,1.7c-6.8,0.5-13.6,1-20.4,1.5c-0.1,0-0.3,0-0.4,0.1c-0.7,0.1-1.2-0.2-1.3-0.9c-0.1-0.7,0.4-0.9,1-0.9
		c3.1-0.2,6.1-0.5,9.2-0.7c9.4-0.7,18.7-1.4,28.1-2.1c7.7-0.6,15.4-1.1,23.1-1.7c9-0.7,18-1.4,27-2.1c7.6-0.6,15.1-1.1,22.7-1.7
		c3.2-0.2,6.3-0.5,9.5-0.7C171.8,64.5,172.2,64.4,172.6,64.6z"/>
	<path d="M143,114.4c-0.4,0.6-0.7,1.3-1.1,1.9c-6.5,0.5-13.1,1-19.6,1.5c-7.9,0.6-15.8,1.2-23.8,1.8c-7.6,0.6-15.1,1.1-22.7,1.7
		c-9.2,0.7-18.5,1.4-27.7,2.1c-6.4,0.5-12.9,1-19.3,1.4c-2.3,0.2-4.5,0.4-6.8,0.5c-0.7,0.1-1.4,0.1-1.5-0.9c-0.1-1,0.7-1,1.4-1
		c10.4-0.8,20.8-1.6,31.2-2.4c9-0.7,17.9-1.3,26.9-2c9-0.7,18-1.4,27-2.1c7.7-0.6,15.5-1.1,23.2-1.7
		C134.6,115.1,138.8,114.8,143,114.4z"/>
	<path d="M135.5,126.9c-0.5,0.7-0.9,1.4-1.4,2c-8.2,0.6-16.5,1.2-24.7,1.9c-6.4,0.5-12.7,0.9-19.1,1.4c-9.2,0.7-18.5,1.4-27.7,2.1
		c-7.7,0.6-15.3,1.1-23,1.7c-5.4,0.4-10.9,0.8-16.3,1.3c-0.8,0.1-1.7,0.2-1.7-0.9c-0.1-1,0.8-1.1,1.5-1.1c7.7-0.6,15.5-1.1,23.2-1.7
		c9.1-0.7,18.2-1.4,27.3-2.1c6.6-0.5,13.2-1,19.7-1.4c7.9-0.6,15.9-1.2,23.8-1.8C123.2,127.8,129.3,127.3,135.5,126.9z"/>
	<path d="M165.3,77c-0.4,0.6-0.7,1.3-1.1,1.9c-6.8,0.5-13.5,1-20.3,1.6c-7.9,0.6-15.8,1.2-23.8,1.8c-7.7,0.6-15.3,1.1-23,1.7
		c-7.9,0.6-15.8,1.2-23.6,1.8c-6.8,0.5-13.5,1-20.3,1.5c-0.7,0.1-1.5,0.1-1.6-0.8c-0.1-1,0.7-1,1.4-1c6.4-0.5,12.8-1,19.2-1.4
		c9.1-0.7,18.3-1.4,27.4-2.1c6.4-0.5,12.9-1,19.3-1.4c8-0.6,15.9-1.2,23.8-1.8C150.4,78,157.8,77.5,165.3,77z"/>
	<path d="M21.4,53.5c0.1,1.9,0.3,3.5,0.4,5.1c0,0.5,0,1.1,0.8,1.1c0.9-0.1,0.7-0.7,0.6-1.2c-0.2-1.6-0.2-3.1-0.2-4.7
		c0-0.5,0.1-1,0.4-1.5c0.8,1.6,0.6,3.2,0.9,4.8c0.1,0.6,0.1,1.3,0.2,1.9c0.1,0.5,0.3,0.8,0.9,0.8c0.6-0.1,0.6-0.5,0.6-0.9
		c-0.1-1.7-0.2-3.4-0.3-5.2c0.6,0,0.7,0.5,0.9,0.8c1.7,2.7,2.9,5.6,2.2,8.9c-0.3,1.2-0.9,2.3-1.9,3c-0.5,0.4-0.6,0.8-0.6,1.4
		c0.5,6.1,0.9,12.2,1.4,18.4c0.1,1.5-0.3,2.1-1.6,2.3c-1.1,0.1-1.7-0.4-1.9-1.9c-0.3-4.1-0.6-8.3-0.9-12.4c-0.1-2-0.3-4-0.5-6.1
		c0-0.6-0.2-1-0.8-1.3c-1.4-0.7-2.3-1.9-2.6-3.5C18.9,59.8,19.3,56.7,21.4,53.5z"/>
	<path d="M34,55.2c-0.2-3,1.1-4.6,3.7-5.1c0.8-0.2,1,0.4,1.1,1c0.1,1.5,0.3,3.1,0.4,4.6c0.7,9.4,1.4,18.9,2.1,28.3
		c0,0.4,0,0.8,0.1,1.2c0.1,1.5-0.3,1.9-1.8,1.9c-0.8,0-1.1-0.3-1.2-1.1c-0.3-4-0.7-8.1-1-12.1c-0.1-1.3-0.2-2.5-0.3-3.8
		c0-0.4-0.1-0.7-0.4-1c-1.6-1.4-1.9-3.4-2-5.4C34.4,60.8,34.2,57.8,34,55.2z"/>
	<path d="M154.7,125.4c3-0.2,6-0.4,9-0.6c4.1-0.3,8.2-0.6,12.3-0.9c0.6,0,1.5-0.2,1.6,0.8c0.1,1.1-0.7,1.1-1.4,1.1
		c-7.7,0.6-15.4,1.2-23.1,1.7C153.5,126.7,154.1,126,154.7,125.4z"/>
	<path d="M164.7,112.7c3.5,0,6.9-0.5,10.4-0.7c0.6,0,1.3-0.2,1.5,0.5c0.3,0.9-0.2,1.3-1.1,1.3c-4.1,0.3-8.2,0.6-12.3,1
		C163.4,113.9,164.1,113.3,164.7,112.7z"/>
	<path d="M174.7,100c0.5,0.3,1.2,0.3,1.1,1.1c-0.1,0.8-0.7,0.8-1.3,0.9c-0.5,0-1,0.1-1.5,0.1C173.5,101.3,174.1,100.6,174.7,100z"/>
	<path class="st3" d="M101.9,171.9C101.9,171.9,101.9,171.9,101.9,171.9c-0.1-0.1-0.1-0.1,0-0.1c0,0,0.1,0,0.1,0
		C102,171.9,102,171.9,101.9,171.9z"/>
	<g>
		<path d="M72,15.7c3.8,0,6.2,2.3,6.5,6.3c0.2,3.4,0.5,6.8,0.7,10.1c0,0.6,0.2,0.8,0.7,0.8c0.1,0,0.1,0,0.2,0
			c5.7-0.5,11.4-0.9,17.2-1.3c5.4-0.4,10.8-0.8,16.2-1.2c6.7-0.5,13.3-1,20-1.5c5.4-0.4,10.7-0.8,16.1-1.2c6.7-0.5,13.3-1,20-1.5
			c0.9-0.1,1.7-0.2,2.6-0.2c0.8,0,1.5,0.1,2.2,0.4c2.2,0.9,3.7,2.3,3.9,4.9c0.5,7,1.1,14,1.7,21.1c-2.3,4.2-4.8,8.2-7.3,12.2
			c-0.2-0.1-0.4-0.1-0.5-0.1c-0.2,0-0.4,0-0.6,0.1c-3.2,0.2-6.3,0.5-9.5,0.7c-7.6,0.6-15.1,1.1-22.7,1.7c-9,0.7-18,1.4-27,2.1
			c-7.7,0.6-15.4,1.1-23.1,1.7c-9.4,0.7-18.7,1.4-28.1,2.1c-3.1,0.2-6.1,0.5-9.2,0.7c-0.6,0-1.1,0.2-1,0.9c0.1,0.6,0.5,0.9,1.1,0.9
			c0.1,0,0.1,0,0.2,0c0.1,0,0.3,0,0.4-0.1c6.8-0.5,13.6-1,20.4-1.5c7.5-0.6,15-1.1,22.6-1.7c9.3-0.7,18.6-1.4,28-2.1
			c7.7-0.6,15.3-1.1,23-1.7c8.4-0.6,16.8-1.2,25.1-1.9c-1.9,3.5-4,7-6.2,10.4c-7.5,0.5-14.9,1.1-22.4,1.6c-8,0.6-15.9,1.2-23.8,1.8
			c-6.4,0.5-12.9,1-19.3,1.4c-9.1,0.7-18.3,1.4-27.4,2.1c-6.4,0.5-12.8,0.9-19.2,1.4c-0.7,0.1-1.5,0.1-1.4,1
			c0.1,0.7,0.6,0.8,1.1,0.8c0.2,0,0.3,0,0.5,0c6.8-0.5,13.5-1,20.3-1.5c7.9-0.6,15.8-1.2,23.6-1.8c7.7-0.6,15.3-1.1,23-1.7
			c7.9-0.6,15.8-1.2,23.8-1.8c6.8-0.5,13.5-1,20.3-1.6c-0.5,0.9-1,1.9-1.6,2.8c-1.7,2.5-3,5.3-4.8,7.7c-7.2,0.5-14.3,1.1-21.5,1.6
			c-6.2,0.5-12.3,0.9-18.5,1.4C109.9,93,102,93.6,94,94.2c-6.5,0.5-13,1-19.5,1.5c-9,0.7-18,1.4-27,2.1c-7.7,0.6-15.4,1.1-23.1,1.7
			c-1.6,0.1-3.1,0.3-4.7,0.4c-0.6,0-1,0.3-0.9,0.9c0,0.6,0.4,0.9,1,0.9c0,0,0,0,0,0c0.3,0,0.5,0,0.8-0.1c12-0.9,24-1.8,35.9-2.7
			c10.3-0.8,20.6-1.5,30.9-2.3c12.5-0.9,25-1.9,37.6-2.9c10.5-0.8,21.1-1.6,31.6-2.3c-0.6,1.1-1.1,2.1-1.8,3.2
			c-1.5,2.4-2.8,5-4.5,7.4c-7.8,0.6-15.6,1.2-23.4,1.8c-10.2,0.8-20.4,1.5-30.7,2.3c-13.7,1-27.4,2.1-41.1,3.1
			c-10.2,0.8-20.4,1.5-30.7,2.3c-1.4,0.1-2.7,0.2-4.1,0.3c-0.6,0.1-1,0.4-0.9,1c0.1,0.5,0.4,0.9,0.9,0.9c0,0,0,0,0.1,0
			c0.8,0,1.5-0.1,2.3-0.1c6.9-0.5,13.9-1,20.8-1.6c6.3-0.5,12.5-0.9,18.8-1.4c8-0.6,15.9-1.2,23.9-1.8c7.6-0.6,15.2-1.1,22.8-1.7
			c8-0.6,16-1.2,24-1.8c5.3-0.4,10.6-0.8,15.9-1.2c-2,3.6-4,7.1-6.3,10.6c-4.2,0.3-8.5,0.6-12.7,0.9c-7.7,0.6-15.5,1.1-23.2,1.7
			c-9,0.7-18,1.4-27,2.1c-9,0.7-17.9,1.3-26.9,2c-10.4,0.8-20.8,1.6-31.2,2.4c-0.7,0.1-1.5,0-1.4,1c0.1,0.8,0.5,0.9,1.1,0.9
			c0.1,0,0.3,0,0.4,0c2.3-0.2,4.5-0.4,6.8-0.5c6.4-0.5,12.9-1,19.3-1.4c9.2-0.7,18.5-1.4,27.7-2.1c7.6-0.6,15.1-1.1,22.7-1.7
			c7.9-0.6,15.8-1.2,23.8-1.8c6.5-0.5,13.1-1,19.6-1.5c-2,3.3-3.9,6.7-5.9,10c-0.1,0.2-0.4,0.3-0.6,0.5c-6.1,0.4-12.2,0.9-18.4,1.3
			c-7.9,0.6-15.9,1.2-23.8,1.8c-6.6,0.5-13.2,1-19.7,1.4c-9.1,0.7-18.2,1.4-27.3,2.1c-7.7,0.6-15.5,1.1-23.2,1.7
			c-0.7,0.1-1.6,0.1-1.5,1.1c0.1,0.8,0.5,0.9,1.1,0.9c0.2,0,0.4,0,0.6,0c5.4-0.4,10.9-0.8,16.3-1.3c7.7-0.6,15.3-1.1,23-1.7
			c9.2-0.7,18.5-1.4,27.7-2.1c6.3-0.5,12.7-1,19.1-1.4c8.2-0.6,16.5-1.2,24.7-1.9c-2.5,3.8-5.7,6.7-10,8.3
			c-4.3,1.6-8.6,3.3-12.5,5.8c-5.2,3.3-9.2,7.7-12.1,13c-4.4,0.3-8.8,0.6-13.2,0.9c-5.4,0.4-10.8,0.8-16.2,1.2
			c-1.3,0.1-2.5,0.2-3.8,0.3c-0.1,0-0.1,0-0.2,0c-0.6,0-0.7-0.3-0.7-0.9c-0.1-2.1-0.2-4.1-0.4-6.2c0-0.6,0.3-0.9,0.5-1.3
			c1.7-2.7,1.7-5.4,0.1-8c-1.4-2.2-3.4-3.3-5.9-3.3c-0.4,0-0.8,0-1.2,0.1c-3.1,0.4-5.3,2.3-6.1,5.4c-0.7,2.6-0.1,4.9,1.8,6.9
			c0.5,0.5,0.7,1,0.7,1.6c0.1,1.9,0.2,3.8,0.4,5.7c0.1,0.7,0,0.9-0.8,1c-10.4,0.8-20.8,1.6-31.2,2.4c-0.2,0-0.4,0-0.6,0
			c-3.4,0-5.8-2.4-6.1-5.9c-0.8-10.6-1.6-21.2-2.4-31.9c-0.7-9-1.3-18.1-2-27.2c-0.8-10.2-1.6-20.3-2.3-30.5c-0.7-9-1.3-18.1-2-27.2
			C7.6,35.1,7.3,31,7,27c-0.3-3.6,2.2-6.5,5.8-6.7c7.8-0.6,15.6-1.2,23.4-1.8c6.5-0.5,13-1,19.5-1.4c5.1-0.4,10.3-0.7,15.4-1.2
			C71.3,15.7,71.7,15.7,72,15.7 M50.1,51.7c0,0,0.1,0,0.1,0c0.1,0,0.2,0,0.3,0c0.1,0,0.3,0,0.4,0c0,0,0,0,0,0
			c3.6-0.3,7.2-0.5,10.8-0.8c6.4-0.5,12.9-0.9,19.3-1.4c9.3-0.7,18.6-1.4,27.8-2.1c7.7-0.6,15.4-1.1,23.1-1.7
			c9.3-0.7,18.6-1.4,27.8-2.1c3.5-0.3,6.9-0.5,10.4-0.8c0.5,0,0.9-0.1,1.1-0.6c0.2-0.4,0.2-0.7-0.1-1c-0.2-0.3-0.5-0.3-0.8-0.3
			c-0.2,0-0.5,0.1-0.7,0.1c-7.7,0.6-15.5,1.1-23.2,1.7c-10.2,0.8-20.4,1.6-30.5,2.3c-7.7,0.6-15.5,1.1-23.2,1.7
			c-11.7,0.9-23.4,1.8-35.1,2.7c-2.5,0.2-5,0.4-7.4,0.6c-0.6,0-1.1,0.3-1,1C49.1,51.4,49.5,51.7,50.1,51.7 M39.5,87.2
			c1.5,0,1.9-0.4,1.8-1.9c0-0.4,0-0.8-0.1-1.2c-0.7-9.4-1.4-18.9-2.1-28.3c-0.1-1.5-0.2-3.1-0.4-4.6c-0.1-0.6-0.2-1.1-0.8-1.1
			c-0.1,0-0.2,0-0.3,0c-2.6,0.5-3.9,2-3.7,5.1c0.2,2.6,0.4,5.7,0.6,8.7c0.1,2,0.4,3.9,2,5.4c0.3,0.2,0.4,0.6,0.4,1
			c0.1,1.3,0.2,2.5,0.3,3.8c0.4,4,0.7,8.1,1,12.1C38.3,86.9,38.7,87.2,39.5,87.2C39.5,87.2,39.5,87.2,39.5,87.2 M22.6,59.6
			c-0.7,0-0.7-0.6-0.7-1.1c-0.1-1.6-0.2-3.1-0.4-5.1c-2.2,3.2-2.6,6.3-1.9,9.6c0.3,1.5,1.2,2.7,2.6,3.5c0.6,0.3,0.7,0.7,0.8,1.3
			c0.1,2,0.3,4,0.5,6.1c0.3,4.1,0.6,8.3,0.9,12.4c0.1,1.4,0.7,2,1.6,2c0.1,0,0.2,0,0.3,0c1.3-0.2,1.7-0.7,1.6-2.3
			c-0.4-6.1-0.9-12.2-1.4-18.4c0-0.6,0-1,0.6-1.4c1-0.7,1.6-1.8,1.9-3c0.7-3.3-0.5-6.2-2.2-8.9c-0.2-0.3-0.3-0.8-0.9-0.8
			c0.1,1.7,0.2,3.4,0.3,5.2c0,0.4,0,0.8-0.6,0.9c0,0-0.1,0-0.1,0c-0.5,0-0.7-0.3-0.8-0.8c-0.1-0.6-0.1-1.3-0.2-1.9
			c-0.3-1.6-0.1-3.2-0.9-4.8c-0.4,0.6-0.4,1-0.4,1.5c-0.1,1.6,0,3.2,0.2,4.7c0.1,0.5,0.2,1.1-0.6,1.2C22.6,59.6,22.6,59.6,22.6,59.6
			 M169.9,52.7C169.9,52.7,169.9,52.7,169.9,52.7c-2.6,0.2-5.2,0.4-7.8,0.6c-7.6,0.6-15.1,1.1-22.7,1.7c-9,0.7-18,1.4-27,2.1
			c-7.7,0.6-15.5,1.1-23.2,1.7c-9.3,0.7-18.6,1.4-28,2.1c-3.4,0.3-6.8,0.5-10.1,0.8c-0.6,0-1.1,0.3-1,1c0.1,0.6,0.5,0.9,1.1,0.9
			c0,0,0,0,0,0c0.3,0,0.5,0,0.8-0.1c4.5-0.3,8.9-0.7,13.4-1c6.5-0.5,13-1,19.5-1.4c9.2-0.7,18.4-1.4,27.6-2.1
			c7.7-0.6,15.5-1.1,23.2-1.7c9.3-0.7,18.6-1.4,27.8-2.1c2.5-0.2,5-0.4,7.6-0.6c0.8-0.1,1.4-0.4,1.3-1.2c0-0.7-0.5-0.8-1-0.8
			c-0.2,0-0.3,0-0.5,0C170.5,52.7,170.2,52.7,169.9,52.7 M72,12.7L72,12.7c-0.4,0-0.8,0-1.3,0.1c-3.7,0.4-7.5,0.6-11.2,0.9
			c-1.4,0.1-2.7,0.2-4.1,0.3c-2.7,0.2-5.4,0.4-8.1,0.6c-3.7,0.3-7.5,0.6-11.3,0.8c-3.1,0.2-6.2,0.5-9.2,0.7
			c-4.6,0.4-9.4,0.7-14.2,1.1c-2.6,0.2-4.9,1.3-6.5,3.2c-1.6,1.8-2.3,4.3-2.1,6.8c0.3,3.6,0.6,7.4,1,12.1c0.3,3.9,0.6,7.9,0.9,11.8
			c0.4,5,0.7,10.2,1.1,15.3c0.4,5,0.8,10.1,1.2,15C8.5,86.6,8.9,91.8,9.3,97c0.4,4.9,0.7,9.8,1.1,14.6c0.3,4.1,0.6,8.3,0.9,12.5
			c0.4,5.3,0.8,10.7,1.2,15.9c0.4,5.2,0.8,10.7,1.2,16c0.4,5.1,4.1,8.7,9.1,8.7c0.3,0,0.5,0,0.8,0c3.9-0.3,7.8-0.6,11.7-0.9
			c6.4-0.5,13-1,19.5-1.5c0.4,0,1.8-0.1,2.8-1.3c1-1.2,0.8-2.5,0.8-3c-0.2-1.6-0.3-3.4-0.4-5.5c-0.1-1.4-0.6-2.6-1.6-3.6
			c-1.1-1.1-1.5-2.4-1.1-4c0.5-1.9,1.6-2.9,3.6-3.2c0.3,0,0.5-0.1,0.8-0.1c1.5,0,2.6,0.6,3.4,1.9c1,1.6,1,3.2-0.1,4.9
			c0,0-0.1,0.1-0.1,0.1c-0.3,0.5-1,1.5-0.9,3c0.2,1.9,0.3,3.9,0.4,6.1c0.1,2.6,2,3.8,3.7,3.8c0.2,0,0.3,0,0.5,0
			c0.8-0.1,1.5-0.1,2.4-0.2c0.4,0,0.9-0.1,1.3-0.1c1.8-0.1,3.6-0.3,5.5-0.4c3.5-0.3,7.2-0.6,10.7-0.8c3-0.2,6.1-0.4,9.1-0.6
			c1.4-0.1,2.7-0.2,4.1-0.3l1.6-0.1l0.8-1.4c2.7-5,6.5-9,11.1-12c3.5-2.2,7.3-3.8,11.9-5.5c4.8-1.8,8.5-4.9,11.5-9.5l0.9-1.4
			c0.3-0.2,0.8-0.6,1.2-1.2c1.6-2.7,3.2-5.5,4.8-8.2l1.1-1.9l1.3-2.3c2-3,4-6.4,6.1-10.3l0.8-1.4l0.1-0.2c1.2-1.6,2.1-3.2,3-4.8
			c0.5-0.9,1.1-1.8,1.6-2.7c0.5-0.8,0.9-1.6,1.3-2.3c0.2-0.3,0.3-0.6,0.5-1l1-1.8c1.2-1.6,2.1-3.2,3-4.8c0.6-1.1,1.2-2,1.8-3
			c0.5-0.7,0.9-1.4,1.2-2.1c0.2-0.3,0.3-0.6,0.5-0.8l0.7-1.3l0.2-0.4c2.1-3.1,4.1-6.6,6.3-10.6l0.8-1.5l0.2-0.3
			c2.5-3.9,5-8,7.4-12.4l0.4-0.8l-0.1-0.9c-0.2-2-0.3-4-0.5-5.9c-0.4-5-0.8-10.1-1.2-15.1c-0.2-2.4-1.3-5.7-5.8-7.4
			c-1-0.4-2.1-0.6-3.3-0.6c-0.7,0-1.4,0.1-2.1,0.1c-0.2,0-0.5,0-0.7,0.1c-3.9,0.3-7.8,0.6-11.6,0.9c-2.8,0.2-5.6,0.4-8.4,0.6
			c-2.7,0.2-5.4,0.4-8,0.6c-2.6,0.2-5.4,0.4-8,0.6c-3.6,0.3-7.2,0.5-10.7,0.8c-3.1,0.2-6.2,0.5-9.3,0.7c-4.4,0.3-8.8,0.7-13.1,1
			l-3.1,0.2c-1.5,0.1-3,0.2-4.5,0.3c-3.5,0.3-7,0.5-10.5,0.8c-0.1-0.8-0.1-1.7-0.2-2.5c-0.1-1.8-0.3-3.7-0.4-5.5
			c-0.2-2.7-1.1-5-2.8-6.7C77,13.6,74.6,12.7,72,12.7L72,12.7z M22.6,62.6c0.1,0,0.2,0,0.3,0c0.4,0,0.8-0.1,1.2-0.3
			c0.4,0.2,0.9,0.2,1.4,0.2c0.1,0,0.3,0,0.4,0c0,0,0.1,0,0.1,0c0,0,0,0.1,0,0.1c-0.2,0.8-0.5,1.1-0.7,1.2c-0.3,0.2-0.5,0.4-0.8,0.7
			c-0.3-0.2-0.6-0.5-1-0.6C23,63.6,22.7,63.2,22.6,62.6C22.5,62.6,22.5,62.6,22.6,62.6L22.6,62.6z"/>
	</g>
</g>
</svg>
